<svg width="235" height="231" viewBox="0 0 235 231" fill="none" xmlns="http://www.w3.org/2000/svg">
<path d="M20.9668 102.874L36.1619 108.163L32.3314 110.349L21.7094 116.313L18.2925 118.24L20.9668 102.874Z" fill="#EBEBEB"/>
<path d="M87.1336 184.869L96.5994 180.651L75.9946 146.14L66.7121 154.257L50.3749 126.103L41.3885 132.086L26.7668 106.172L21.3994 108.404L39.25 143.34L49.3879 134.715L64.7757 166.135L73.9736 156.332L87.1336 184.869Z" fill="#EBEBEB"/>
<path d="M223.574 145.355C223.195 147.888 222.06 150.254 220.312 152.152C218.564 154.051 216.282 155.397 213.756 156.02C211.229 156.643 208.571 156.514 206.118 155.651C203.666 154.788 201.529 153.229 199.979 151.171C198.428 149.113 197.534 146.649 197.41 144.092C197.285 141.534 197.935 138.997 199.278 136.803C200.621 134.609 202.596 132.856 204.954 131.766C207.311 130.677 209.944 130.299 212.52 130.681C215.962 131.193 219.058 133.024 221.13 135.774C223.202 138.524 224.081 141.969 223.574 145.355Z" fill="#F5F5F5"/>
<path d="M220.477 144.897C220.187 146.825 219.322 148.626 217.99 150.07C216.659 151.515 214.922 152.539 212.998 153.012C211.075 153.485 209.051 153.387 207.185 152.73C205.318 152.072 203.691 150.885 202.511 149.319C201.331 147.752 200.651 145.877 200.556 143.93C200.46 141.983 200.955 140.052 201.977 138.382C202.998 136.711 204.502 135.376 206.296 134.546C208.089 133.715 210.094 133.427 212.055 133.717C213.355 133.907 214.604 134.347 215.73 135.012C216.857 135.677 217.84 136.554 218.622 137.592C219.404 138.63 219.97 139.81 220.289 141.063C220.607 142.317 220.671 143.619 220.477 144.897Z" fill="#EBEBEB"/>
<path d="M220.524 144.606C220.453 144.207 220.425 143.801 220.44 143.396C220.376 142.316 220.145 141.251 219.753 140.24C219.48 139.55 219.13 138.891 218.71 138.277C218.229 137.576 217.657 136.939 217.009 136.383C216.66 136.078 216.288 135.802 215.895 135.556C215.491 135.294 215.067 135.063 214.626 134.867C214.17 134.662 213.698 134.492 213.216 134.359C212.719 134.225 212.213 134.126 211.702 134.063C211.189 134.004 210.672 133.984 210.156 134.003C209.654 134.024 209.155 134.082 208.661 134.174C208.182 134.263 207.71 134.389 207.251 134.553C206.812 134.703 206.384 134.885 205.973 135.098C205.211 135.493 204.503 135.982 203.867 136.554C203.314 137.056 202.818 137.615 202.387 138.221C201.769 139.115 201.294 140.097 200.977 141.132C200.896 141.53 200.773 141.919 200.61 142.292C200.547 141.881 200.573 141.463 200.685 141.063C200.903 139.951 201.329 138.889 201.94 137.93C202.363 137.259 202.865 136.639 203.435 136.082C204.093 135.448 204.836 134.905 205.644 134.47C206.08 134.231 206.534 134.026 207.002 133.855C207.492 133.676 207.995 133.534 208.506 133.43C209.036 133.323 209.573 133.258 210.114 133.236C211.224 133.19 212.335 133.319 213.404 133.62C213.922 133.768 214.428 133.955 214.917 134.179C215.391 134.396 215.846 134.65 216.28 134.937C216.695 135.215 217.088 135.524 217.455 135.861C218.734 137.001 219.694 138.446 220.242 140.056C220.605 141.13 220.765 142.26 220.712 143.391C220.737 143.805 220.673 144.219 220.524 144.606Z" fill="#E0E0E0"/>
<path d="M210.8 149.411L210.569 151.111L209.023 150.903L209.253 149.249C207.886 149.024 206.611 148.425 205.573 147.521L206.678 145.784C207.481 146.51 208.462 147.018 209.526 147.258L209.874 144.726C208.215 144.089 206.382 143.271 206.678 141.1C206.899 139.492 208.28 138.268 210.757 138.328L210.988 136.641L212.534 136.849L212.308 138.503C213.404 138.71 214.433 139.171 215.312 139.848L214.282 141.612C213.614 141.101 212.849 140.725 212.031 140.508L211.674 143.086C213.333 143.71 215.142 144.523 214.846 146.662C214.63 148.233 213.267 149.443 210.8 149.411ZM210.184 142.481L210.48 140.323C209.634 140.397 209.249 140.785 209.183 141.294C209.117 141.802 209.531 142.19 210.184 142.495V142.481ZM212.337 146.491C212.407 145.96 211.998 145.613 211.368 145.295L211.077 147.392C211.871 147.341 212.266 146.99 212.337 146.505V146.491Z" fill="#E0E0E0"/>
<path d="M214.033 43.8255C213.701 46.0292 212.712 48.0866 211.19 49.7372C209.668 51.3879 207.682 52.5576 205.483 53.0984C203.285 53.6391 200.972 53.5266 198.839 52.7751C196.705 52.0236 194.847 50.6668 193.498 48.8765C192.149 47.0862 191.371 44.9428 191.262 42.7176C191.153 40.4925 191.718 38.2855 192.886 36.3761C194.053 34.4667 195.771 32.9407 197.821 31.9912C199.871 31.0416 202.162 30.7113 204.403 31.042C205.889 31.2594 207.318 31.7626 208.606 32.5228C209.895 33.283 211.018 34.2853 211.912 35.4725C212.807 36.6596 213.454 38.0083 213.818 39.4416C214.182 40.8748 214.255 42.3645 214.033 43.8255Z" fill="#F5F5F5"/>
<path d="M211.34 43.4281C211.089 45.1082 210.337 46.6774 209.178 47.9371C208.02 49.1968 206.507 50.0904 204.832 50.5048C203.156 50.9193 201.393 50.8359 199.766 50.2653C198.139 49.6947 196.721 48.6625 195.69 47.2993C194.66 45.9362 194.064 44.3032 193.979 42.6071C193.893 40.911 194.321 39.228 195.208 37.771C196.095 36.314 197.403 35.1485 198.964 34.4219C200.525 33.6953 202.271 33.4403 203.98 33.6891C205.114 33.8524 206.205 34.2341 207.189 34.8122C208.173 35.3902 209.031 36.1534 209.715 37.058C210.399 37.9626 210.894 38.9909 211.173 40.084C211.452 41.177 211.509 42.3134 211.34 43.4281Z" fill="#EBEBEB"/>
<path d="M211.378 43.1602C211.317 42.8125 211.292 42.4595 211.303 42.1068C211.253 41.1578 211.052 40.2223 210.706 39.3348C210.469 38.7337 210.165 38.1604 209.799 37.6254C209.377 37.0149 208.878 36.4592 208.314 35.9714C208.011 35.708 207.687 35.4685 207.346 35.2553C206.994 35.0262 206.625 34.8254 206.241 34.6548C205.845 34.4704 205.435 34.316 205.014 34.1928C204.581 34.0756 204.14 33.9891 203.694 33.934C203.246 33.8874 202.795 33.8704 202.345 33.8832C201.909 33.9007 201.475 33.9517 201.048 34.0357C200.631 34.1106 200.223 34.2203 199.826 34.3637C199.444 34.4895 199.073 34.6439 198.716 34.8257C198.052 35.1674 197.436 35.5929 196.883 36.0916C196.401 36.5287 195.969 37.0167 195.596 37.5469C195.051 38.3234 194.634 39.1793 194.359 40.0832C194.288 40.4288 194.181 40.7662 194.04 41.0904C193.985 40.7325 194.008 40.3674 194.106 40.0186C194.297 39.0521 194.666 38.1282 195.196 37.2928C195.565 36.7131 196.002 36.1782 196.498 35.6989C197.072 35.152 197.721 34.6856 198.425 34.3129C198.804 34.1028 199.2 33.9236 199.609 33.7769C200.034 33.6192 200.471 33.4956 200.916 33.4073C201.381 33.3144 201.852 33.2573 202.326 33.2364C202.811 33.2189 203.296 33.2359 203.778 33.2872C204.255 33.3473 204.726 33.443 205.188 33.5737C205.642 33.6932 206.085 33.8477 206.514 34.0357C206.925 34.2236 207.319 34.4446 207.693 34.6963C208.057 34.9329 208.401 35.197 208.723 35.4863C209.315 36.0179 209.832 36.6255 210.26 37.2928C210.629 37.8722 210.927 38.4925 211.148 39.1408C211.465 40.0748 211.606 41.0583 211.561 42.0421C211.585 42.4235 211.523 42.8054 211.378 43.1602Z" fill="#E0E0E0"/>
<path d="M202.909 47.355L202.707 48.8381L201.362 48.6579L201.56 47.2164C200.367 47.0302 199.251 46.5179 198.34 45.738L199.304 44.2227C200.004 44.8546 200.859 45.2971 201.785 45.507L202.086 43.2987C200.643 42.7443 199.045 42.0328 199.304 40.1432C199.497 38.7572 200.714 37.6761 202.857 37.7223L203.059 36.2532L204.403 36.4334L204.206 37.8748C205.161 38.053 206.059 38.4538 206.824 39.0437L205.931 40.5821C205.354 40.1291 204.691 39.793 203.98 39.5934L203.67 41.8434C205.118 42.3839 206.688 43.0954 206.434 44.9573C206.241 46.334 205.057 47.3874 202.909 47.355ZM202.368 41.349L202.627 39.4687C201.894 39.5334 201.56 39.8799 201.499 40.3142C201.438 40.7484 201.804 41.0718 202.368 41.3352V41.349ZM204.248 44.8418C204.314 44.3798 203.957 44.0748 203.407 43.8023L203.153 45.6503C203.844 45.5579 204.187 45.276 204.244 44.814L204.248 44.8418Z" fill="#E0E0E0"/>
<path d="M79.6088 29.5681C80.6101 33.1546 80.5063 36.9525 79.3107 40.481C78.1151 44.0095 75.8814 47.1099 72.8923 49.3899C69.9032 51.67 66.2932 53.027 62.5191 53.2892C58.745 53.5515 54.9767 52.7072 51.691 50.8632C48.4053 49.0192 45.7501 46.2584 44.0614 42.9303C42.3727 39.6023 41.7265 35.8565 42.2045 32.1672C42.6825 28.478 44.2634 25.011 46.7468 22.2053C49.2303 19.3996 52.5048 17.3813 56.1558 16.4057C58.575 15.7562 61.1006 15.5815 63.5885 15.8914C66.0764 16.2014 68.4778 16.99 70.6556 18.2122C72.8334 19.4345 74.745 21.0664 76.2812 23.0149C77.8174 24.9633 78.9481 27.1901 79.6088 29.5681Z" fill="#F5F5F5"/>
<path d="M75.2002 30.7277C75.964 33.4612 75.8855 36.356 74.9745 39.0456C74.0635 41.7352 72.361 44.0985 70.0826 45.8364C67.8042 47.5742 65.0525 48.6083 62.1758 48.8078C59.2991 49.0072 56.4269 48.3631 53.9229 46.9568C51.4189 45.5506 49.3958 43.4456 48.1097 40.9084C46.8236 38.3711 46.3324 35.5158 46.6983 32.704C47.0643 29.8921 48.2708 27.2503 50.1653 25.113C52.0597 22.9757 54.5567 21.4391 57.3402 20.6977C61.0614 19.7066 65.0306 20.2057 68.3782 22.0857C71.7259 23.9657 74.179 27.0733 75.2002 30.7277Z" fill="#EBEBEB"/>
<path d="M75.0966 30.2936C75.012 30.3213 74.7864 29.7299 74.2647 28.732C73.5381 27.3368 72.5964 26.0605 71.4729 24.9482C69.812 23.3038 67.7679 22.0826 65.518 21.3908C64.8745 21.1876 64.2162 21.0331 63.5487 20.9288C62.8544 20.8132 62.152 20.7514 61.4478 20.744C60.7185 20.734 59.9894 20.7788 59.267 20.878C58.5248 20.9786 57.7911 21.133 57.0721 21.34C56.3585 21.5691 55.6627 21.8486 54.99 22.1762C54.3362 22.4907 53.7078 22.8537 53.11 23.2619C52.5317 23.6561 51.9849 24.0932 51.4744 24.5694C50.9816 25.0243 50.5229 25.5138 50.102 26.0339C49.3213 26.9979 48.6705 28.057 48.1656 29.1848C47.7263 30.1702 47.4 31.2006 47.1927 32.2571C46.8958 33.8031 46.8451 35.385 47.0423 36.9464C47.1786 38.0598 47.329 38.6742 47.2444 38.6973C47.1598 38.7204 46.8919 38.1429 46.6146 37.0203C46.2379 35.4176 46.1693 33.7598 46.4125 32.1323C46.5776 31.0017 46.8789 29.8943 47.3102 28.8336C47.8111 27.6112 48.4783 26.4611 49.2936 25.4148C49.7307 24.8453 50.2132 24.3107 50.7365 23.8163C51.2771 23.2944 51.8603 22.817 52.4802 22.3887C53.1215 21.9395 53.799 21.5424 54.5059 21.2014C55.96 20.4938 57.5223 20.0256 59.1307 19.8154C59.9093 19.7108 60.6951 19.6676 61.4807 19.686C62.2393 19.7001 62.9955 19.7758 63.7414 19.9124C64.4558 20.0355 65.1597 20.2116 65.847 20.4391C67.1137 20.8564 68.3169 21.4408 69.4237 22.1762C70.3857 22.8176 71.2662 23.5699 72.0463 24.4169C73.1727 25.6321 74.0603 27.0419 74.6642 28.5749C75.0731 29.6421 75.1577 30.2751 75.0966 30.2936Z" fill="#E0E0E0"/>
<path d="M65.0292 42.3054L65.7295 44.7031L63.5534 45.3176L62.8719 43.0076C60.677 43.4696 58.4163 43.4095 56.9452 42.8274L57.3823 39.8752C58.8808 40.375 60.4855 40.4848 62.04 40.194L60.9966 36.6181C58.4116 36.7244 55.4788 36.6921 54.5811 33.6336C53.9184 31.3606 55.0276 28.9397 58.3411 27.5814L57.6455 25.2067L59.8216 24.5923L60.5031 26.9023C62.0861 26.5465 63.7324 26.5655 65.3065 26.9577L64.9916 29.9007C63.795 29.6044 62.5505 29.5447 61.3303 29.7251L62.3972 33.3657C64.9775 33.2409 67.8633 33.2825 68.7469 36.2994C69.4237 38.5354 68.3286 40.9332 65.0292 42.3054ZM60.0848 33.4581L59.22 30.4181C58.139 31.0002 57.8664 31.7487 58.0732 32.4555C58.28 33.1624 59.0414 33.4257 60.0848 33.4581ZM65.33 37.556C65.1138 36.8076 64.3618 36.5812 63.3325 36.5211L64.1926 39.4779C65.2266 38.9328 65.5415 38.2444 65.33 37.556Z" fill="#E0E0E0"/>
<path d="M37.069 61.2427C36.6334 63.5286 35.5176 65.636 33.863 67.2982C32.2085 68.9605 30.0894 70.1029 27.7741 70.5809C25.4587 71.0588 23.0511 70.8508 20.8561 69.9833C18.661 69.1157 16.7771 67.6275 15.4428 65.707C14.1086 63.7866 13.3838 61.5202 13.3604 59.1947C13.337 56.8693 14.016 54.5892 15.3114 52.6432C16.6068 50.6972 18.4603 49.1727 20.6375 48.2626C22.8147 47.3525 25.2176 47.0977 27.5421 47.5306C29.0837 47.8158 30.5531 48.3967 31.8662 49.2403C33.1794 50.0838 34.3106 51.1733 35.1953 52.4467C36.08 53.72 36.7008 55.1522 37.0223 56.6615C37.3438 58.1707 37.3597 59.7275 37.069 61.2427Z" fill="#F5F5F5"/>
<path d="M34.277 60.7207C33.9451 62.463 33.0948 64.0693 31.8338 65.3364C30.5728 66.6035 28.9577 67.4743 27.193 67.8388C25.4282 68.2032 23.5932 68.0448 21.9201 67.3836C20.2469 66.7224 18.811 65.5882 17.7939 64.1245C16.7769 62.6608 16.2244 60.9334 16.2065 59.1609C16.1886 57.3884 16.706 55.6506 17.6933 54.1673C18.6806 52.684 20.0934 51.522 21.7528 50.8283C23.4122 50.1346 25.2437 49.9404 27.0155 50.2703C29.3882 50.7096 31.4862 52.0574 32.848 54.0172C34.2098 55.9771 34.7238 58.3884 34.277 60.7207Z" fill="#EBEBEB"/>
<path d="M34.31 60.4435C34.2589 60.0792 34.2478 59.7105 34.2771 59.3439C34.2589 58.3593 34.0845 57.3835 33.7601 56.4518C33.2885 55.081 32.4815 53.8451 31.4101 52.8528C31.1049 52.5639 30.7764 52.2997 30.4278 52.0628C30.07 51.8125 29.6929 51.59 29.2998 51.3975C28.8925 51.1946 28.4698 51.0232 28.0355 50.8847C27.5879 50.7455 27.1309 50.6374 26.6678 50.5613C26.2009 50.4937 25.7298 50.4582 25.2578 50.455C24.803 50.4575 24.349 50.493 23.8995 50.5613C23.4633 50.6276 23.0327 50.7265 22.6117 50.857C22.209 50.9824 21.8163 51.1368 21.4367 51.319C20.1058 51.9423 18.9493 52.8746 18.0668 54.0355C17.4691 54.8243 17.0013 55.7004 16.6803 56.632C16.59 56.9897 16.464 57.3379 16.3043 57.6715C16.2664 57.2912 16.3162 56.9075 16.45 56.5488C16.6857 55.5479 17.108 54.5987 17.6955 53.7491C18.0989 53.1573 18.5722 52.6145 19.1055 52.1321C19.7269 51.5812 20.4209 51.115 21.1688 50.7461C21.5741 50.5424 21.9953 50.3709 22.4284 50.2333C22.8776 50.0861 23.3381 49.9749 23.8055 49.9006C24.2915 49.8192 24.7836 49.7775 25.2766 49.7759C25.7834 49.7794 26.2892 49.8196 26.79 49.896C27.2902 49.9764 27.7836 50.0938 28.2658 50.2471C28.7284 50.4034 29.1778 50.595 29.61 50.82C30.0314 51.0337 30.4353 51.2793 30.8179 51.5546C31.1847 51.8177 31.5319 52.1065 31.8566 52.4185C32.9807 53.4992 33.8016 54.8472 34.2395 56.3317C34.535 57.3187 34.6402 58.3512 34.5497 59.3762C34.5443 59.7443 34.4628 60.1074 34.31 60.4435Z" fill="#E0E0E0"/>
<path d="M25.3237 64.4906L25.0511 66.0291L23.6411 65.7889L23.9043 64.292C22.6665 64.044 21.5257 63.4561 20.6143 62.5964L21.6812 61.058C22.3854 61.7436 23.2581 62.2386 24.2145 62.4948L24.6234 60.1848C23.1382 59.5472 21.4979 58.7434 21.8457 56.7799C22.1042 55.3246 23.4014 54.262 25.6527 54.3913L25.9206 52.8713L27.3306 53.107L27.0674 54.6038C28.0562 54.8305 28.976 55.285 29.7511 55.9298L28.7547 57.496C28.1629 57.0092 27.4793 56.6419 26.7431 56.4149L26.3295 58.7249C27.8147 59.3486 29.4315 60.1478 29.0837 62.0836C28.844 63.5528 27.5609 64.6061 25.3237 64.4906ZM25.0041 58.1843L25.3519 56.2347C24.5811 56.2763 24.2192 56.6228 24.1346 57.0755C24.05 57.5283 24.4401 57.8887 25.0041 58.1843ZM26.8183 61.9081C26.9029 61.4461 26.5457 61.0996 25.9817 60.79L25.6433 62.6842C26.3718 62.6473 26.7384 62.3423 26.8183 61.9081Z" fill="#E0E0E0"/>
<path d="M223.819 164.828L212.402 164.421L214.353 166.842L219.767 173.49L221.506 175.639L223.819 164.828Z" fill="#F5F5F5"/>
<path d="M158.475 201.908L153.356 196.706L176.086 179.242L180.052 186.967L198.279 172.603L202.617 178.845L219.124 165.516L222.07 168.362L201.043 186.814L196.648 178.531L178.172 195.292L174.713 186.477L158.475 201.908Z" fill="#F5F5F5"/>
<path d="M202.119 64.9204L186.867 72.9038L191.285 74.6224L203.505 79.2794L207.439 80.7855L202.119 64.9204Z" fill="#E0E0E0"/>
<path d="M145.263 162.171L134.547 159.187L150.799 119.386L161.953 126.533L174.708 94.1419L185.199 99.0761L196.502 69.3279L202.556 70.8479L189.288 110.672L177.148 103.114L165.924 138.822L154.588 129.868L145.263 162.171Z" fill="#E0E0E0"/>
<path d="M224.388 218.748C224.388 218.817 176.076 218.873 116.49 218.873C56.903 218.873 8.57764 218.817 8.57764 218.748C8.57764 218.679 56.8795 218.628 116.49 218.628C176.1 218.628 224.388 218.683 224.388 218.748Z" fill="#263238"/>
<path d="M134.138 218.642H145.733V199.991H134.138V218.642Z" fill="#FF922F"/>
<path d="M180.889 218.642H192.484V186.999H180.889V218.642Z" fill="#FF922F"/>
<path d="M204.266 218.637H215.861V207.142H204.266V218.637Z" fill="#FF922F"/>
<path d="M157.511 218.637H169.106V191.125H157.511V218.637Z" fill="#FF922F"/>
<path d="M110.76 218.642H122.355V184.361H110.76V218.642Z" fill="#FF922F"/>
<path d="M87.387 218.637H98.9819V174.539H87.387V218.637Z" fill="#FF922F"/>
<path d="M64.014 218.642H75.6089V163.613H64.014V218.642Z" fill="#FF922F"/>
<path d="M40.6312 218.637H52.2261L52.2261 148.783H40.6312L40.6312 218.637Z" fill="#FF922F"/>
<path d="M17.2581 218.637H28.853L28.853 126.81H17.2581L17.2581 218.637Z" fill="#FF922F"/>
<path d="M195.591 206.278C193.694 202.744 190.884 199.765 187.442 197.639C184 195.514 180.049 194.319 175.987 194.174C180.898 188.829 181.867 180.559 179.032 173.915C176.198 167.272 169.961 162.315 162.958 160.18C155.955 158.046 148.299 158.545 141.338 160.753C142.152 155.56 136.864 150.372 131.581 151.18C132.633 150.473 133.376 149.403 133.663 148.183C133.95 146.963 133.761 145.681 133.133 144.591C132.505 143.501 131.484 142.683 130.271 142.298C129.058 141.914 127.743 141.99 126.585 142.513L126.9 104.412H103.87L104.18 142.495C103.015 141.92 101.669 141.808 100.422 142.18C99.1741 142.553 98.1198 143.382 97.4767 144.497C96.8335 145.612 96.6506 146.928 96.9658 148.171C97.2809 149.415 98.07 150.492 99.1701 151.18C93.8873 150.372 88.5998 155.56 89.4082 160.753C82.4334 158.545 74.7724 158.041 67.7882 160.18C60.804 162.319 54.5201 167.267 51.7001 173.915C48.8801 180.564 49.8201 188.829 54.7504 194.174C50.6879 194.319 46.7361 195.514 43.2935 197.639C39.8509 199.765 37.0392 202.744 35.142 206.278C32.9988 210.4 32.792 216.484 36.9656 218.637H193.767C197.936 216.484 197.738 210.4 195.591 206.278Z" fill="#EBEBEB"/>
<path d="M36.9514 218.637L36.3921 218.309C35.8528 217.953 35.3765 217.513 34.9821 217.006C34.3673 216.159 33.9515 215.189 33.7648 214.165C33.5081 212.759 33.5256 211.318 33.8165 209.919C34.1594 208.15 34.8387 206.46 35.8187 204.939C36.9582 203.096 38.3694 201.43 40.0064 199.995C41.8908 198.32 44.0402 196.958 46.3702 195.962L47.3102 195.569L48.2878 195.232C48.6177 195.115 48.9534 195.015 49.2936 194.932C49.6367 194.839 49.9751 194.733 50.3276 194.659C51.7688 194.341 53.2367 194.154 54.7127 194.1L54.6563 194.22C53.1733 192.573 52.0147 190.67 51.2394 188.607C50.1662 185.688 49.7861 182.567 50.1282 179.482C50.4704 176.396 51.5257 173.429 53.2134 170.806C53.931 169.653 54.7588 168.57 55.6856 167.572C59.6516 163.311 64.9093 160.421 70.6786 159.33C73.7304 158.737 76.8503 158.557 79.9517 158.794C83.1658 159.049 86.3391 159.669 89.4081 160.642L89.2671 160.762C89.0848 159.507 89.2237 158.227 89.6713 157.038C90.1408 155.806 90.8646 154.682 91.7971 153.737C92.7297 152.793 93.851 152.048 95.0904 151.55C96.3829 151.037 97.7913 150.873 99.17 151.074L99.0854 151.277C98.014 150.552 97.258 149.458 96.9663 148.212C96.6746 146.966 96.8684 145.657 97.5096 144.545C98.1508 143.432 99.1928 142.596 100.43 142.201C101.668 141.806 103.011 141.881 104.194 142.411L104.03 142.518C103.926 130.39 103.823 117.602 103.715 104.435V104.315H126.989V104.412C126.881 117.547 126.773 130.284 126.674 142.495L126.51 142.388C127.694 141.858 129.037 141.783 130.274 142.178C131.511 142.573 132.553 143.409 133.195 144.522C133.836 145.634 134.03 146.943 133.738 148.189C133.446 149.435 132.69 150.529 131.619 151.254L131.534 151.051C132.89 150.854 134.275 151.014 135.548 151.513C136.792 152.004 137.919 152.743 138.857 153.684C139.795 154.624 140.525 155.746 141 156.978C141.467 158.187 141.612 159.492 141.423 160.771L141.282 160.651C144.351 159.679 147.524 159.058 150.738 158.803C153.835 158.567 156.95 158.746 159.997 159.335C165.761 160.424 171.015 163.306 174.986 167.554C175.911 168.554 176.741 169.636 177.463 170.788C178.177 171.895 178.782 173.068 179.267 174.289C179.742 175.477 180.099 176.707 180.334 177.962C180.56 179.182 180.678 180.419 180.687 181.658C180.692 184.021 180.279 186.366 179.465 188.588C178.688 190.661 177.525 192.573 176.034 194.225L175.982 194.105C177.46 194.158 178.929 194.345 180.372 194.664C180.72 194.742 181.063 194.848 181.406 194.936C181.746 195.02 182.082 195.122 182.412 195.241L183.394 195.578L184.334 195.971C186.668 196.967 188.82 198.331 190.707 200.009C192.341 201.448 193.75 203.115 194.89 204.957C195.866 206.48 196.544 208.169 196.888 209.937C197.174 211.336 197.188 212.775 196.93 214.179C196.741 215.201 196.326 216.169 195.713 217.015C195.32 217.522 194.843 217.961 194.303 218.313C193.936 218.535 193.743 218.641 193.743 218.641L194.293 218.295C194.817 217.936 195.279 217.496 195.661 216.992C196.263 216.147 196.669 215.181 196.85 214.165C197.099 212.769 197.078 211.34 196.789 209.951C196.442 208.193 195.763 206.515 194.787 205.003C193.647 203.175 192.239 201.521 190.609 200.097C188.729 198.432 186.586 197.079 184.264 196.091L183.324 195.703L182.346 195.371C182.018 195.252 181.684 195.15 181.345 195.066C181.002 194.978 180.663 194.876 180.316 194.798C178.882 194.485 177.422 194.301 175.954 194.248H175.799L175.902 194.132C177.375 192.492 178.524 190.596 179.291 188.542C180.097 186.332 180.504 184.001 180.494 181.654C180.481 180.427 180.363 179.203 180.142 177.995C179.906 176.75 179.549 175.531 179.075 174.354C178.592 173.143 177.992 171.979 177.284 170.88C176.568 169.752 175.75 168.689 174.84 167.706C170.895 163.492 165.677 160.637 159.955 159.561C156.924 158.978 153.827 158.802 150.748 159.039C147.552 159.296 144.398 159.917 141.348 160.887L141.179 160.938L141.202 160.767C141.387 159.52 141.244 158.248 140.789 157.071C140.321 155.874 139.607 154.785 138.692 153.873C137.776 152.96 136.679 152.243 135.468 151.767C134.232 151.277 132.886 151.118 131.567 151.305L131.074 151.384L131.487 151.102C132.505 150.406 133.221 149.361 133.496 148.173C133.77 146.985 133.584 145.739 132.973 144.679C132.362 143.619 131.37 142.822 130.192 142.444C129.013 142.065 127.734 142.133 126.604 142.633L126.439 142.707V142.527C126.538 130.326 126.637 117.579 126.745 104.444L126.867 104.564H103.87L103.992 104.444C104.096 117.611 104.199 130.395 104.298 142.527V142.707L104.129 142.633C103.004 142.152 101.739 142.095 100.575 142.475C99.411 142.855 98.431 143.644 97.823 144.691C97.215 145.737 97.022 146.968 97.281 148.146C97.5401 149.325 98.2329 150.367 99.2264 151.074L99.64 151.356L99.1418 151.277C97.809 151.084 96.4477 151.243 95.1985 151.739C93.9712 152.228 92.8629 152.967 91.9461 153.906C90.1272 155.754 89.1261 158.314 89.5068 160.711L89.535 160.882L89.3658 160.831C86.3159 159.859 83.1614 159.239 79.9658 158.983C76.8852 158.749 73.7866 158.925 70.7538 159.505C65.0181 160.593 59.7917 163.468 55.8501 167.706C54.9328 168.695 54.11 169.766 53.392 170.903C52.6819 172.001 52.0837 173.164 51.606 174.377C49.8029 178.924 49.7328 183.958 51.4086 188.551C52.1775 190.598 53.3248 192.487 54.7926 194.123L54.896 194.239H54.7362C53.2715 194.292 51.8148 194.476 50.384 194.788C50.0362 194.862 49.6978 194.969 49.3547 195.056C49.0116 195.144 48.6826 195.237 48.3536 195.357L47.3807 195.689L46.4407 196.077C44.1189 197.062 41.9758 198.412 40.0957 200.074C38.4664 201.501 37.0573 203.154 35.9127 204.98C34.9372 206.493 34.2567 208.171 33.9058 209.928C33.6156 211.318 33.5933 212.749 33.84 214.146C34.0191 215.165 34.4251 216.132 35.0291 216.978C35.4098 217.486 35.8736 217.928 36.4015 218.286L36.9514 218.637Z" fill="#263238"/>
<path d="M85.4834 52.2245L114.487 19.0391L142.358 52.2245H131.482V106.352H97.7175V52.2846L85.4834 52.2245Z" fill="#FF922F"/>
<path d="M223.241 106.154L202.707 112.358L207.693 115.449L221.507 123.899L225.948 126.63L223.241 106.154Z" fill="#FF922F"/>
<path d="M130.575 211.199L118.2 205.119L147.552 160.527L159.471 171.758L182.783 135.352L194.42 143.747L215.33 110.219L222.362 113.449L196.648 158.753L183.624 146.801L161.384 187.581L149.681 174.123L130.575 211.199Z" fill="#FF922F"/>
<g opacity="0.3">
<path d="M142.687 199.704C139.867 197.856 136.23 197.671 132.916 198.318C131.821 198.531 130.608 198.808 129.65 198.249C128.691 197.69 128.371 196.516 127.995 195.477C126.059 190.247 120.748 186.662 115.159 185.747C109.571 184.832 105.087 185.285 100.025 187.766C96.4615 189.423 93.421 191.998 91.227 195.218C90.4703 196.332 89.0932 198.6 89.0932 198.6C88.0827 199.33 86.7432 199.381 85.5024 199.579C82.9387 200.033 80.5641 201.208 78.6675 202.964C76.7709 204.719 75.434 206.978 74.8193 209.466L145.818 208.362C147.152 205.294 145.503 201.538 142.687 199.704Z" fill="black"/>
</g>
<path d="M70.9326 214.035C73.151 206.306 81.8977 201.002 89.9206 202.527C91.6079 194.119 99.7906 187.443 108.528 187.373C117.265 187.304 125.556 193.841 127.38 202.236C132.197 201.146 137.377 200.337 141.978 202.116C146.579 203.894 150.099 209.198 148.196 213.666" fill="#EBEBEB"/>
<path d="M148.196 213.684C148.196 213.684 148.196 213.638 148.233 213.55C148.271 213.462 148.304 213.333 148.355 213.167C148.434 212.958 148.489 212.741 148.52 212.52C148.591 212.227 148.634 211.929 148.647 211.628C148.75 209.641 148.145 207.68 146.936 206.084C146.112 204.942 145.079 203.959 143.89 203.188C142.483 202.299 140.906 201.702 139.256 201.432C137.385 201.126 135.479 201.07 133.593 201.266C131.507 201.492 129.439 201.857 127.403 202.356H127.295V202.25C126.453 198.685 124.566 195.442 121.866 192.922C118.923 190.123 115.169 188.289 111.122 187.674C108.564 187.31 105.955 187.517 103.489 188.279C98.8934 189.706 94.9647 192.695 92.4065 196.71C91.2812 198.502 90.4857 200.474 90.0565 202.536V202.633H89.9531C88.2381 202.324 86.4821 202.302 84.7596 202.568C83.9647 202.687 83.1794 202.862 82.4096 203.091L81.3145 203.465C80.9479 203.58 80.6189 203.76 80.2758 203.899C79.6321 204.191 79.0045 204.516 78.3958 204.874L77.5545 205.428L77.141 205.701L76.7649 205.997L76.0318 206.574C75.7968 206.763 75.5899 206.981 75.3737 207.175C75.1575 207.369 74.9508 207.563 74.7628 207.766L74.2269 208.367C73.1557 209.589 72.278 210.962 71.6231 212.441C71.3975 212.954 71.28 213.365 71.1531 213.633C71.0262 213.901 70.998 214.045 70.998 214.045C70.998 214.045 71.1484 213.467 71.5479 212.418C72.1838 210.922 73.0492 209.531 74.1141 208.293L74.6546 207.678C74.8426 207.475 75.0588 207.286 75.2656 207.082C75.4724 206.879 75.6839 206.666 75.9236 206.472L76.6569 205.886C76.7838 205.784 76.9059 205.682 77.0375 205.585L77.4464 205.308L78.2971 204.745C78.9143 204.379 79.5513 204.048 80.2053 203.751C80.5484 203.608 80.8821 203.423 81.2487 203.289L82.3579 202.906C83.1381 202.671 83.9345 202.492 84.7408 202.37C86.4854 202.09 88.2657 202.106 90.0048 202.416L89.8827 202.499C90.3135 200.408 91.1188 198.409 92.2608 196.595C93.4971 194.637 95.0699 192.905 96.9091 191.476C98.845 189.96 101.044 188.802 103.4 188.057C105.901 187.284 108.547 187.075 111.141 187.447C115.237 188.067 119.036 189.924 122.012 192.76C124.742 195.317 126.647 198.605 127.492 202.217L127.356 202.134C129.405 201.648 131.486 201.298 133.583 201.085C135.488 200.893 137.411 200.957 139.298 201.275C140.974 201.552 142.574 202.165 143.998 203.077C145.198 203.865 146.237 204.866 147.063 206.029C148.276 207.648 148.868 209.636 148.736 211.642C148.715 211.946 148.666 212.248 148.59 212.543C148.551 212.759 148.489 212.971 148.407 213.176C148.346 213.338 148.299 213.462 148.266 213.559C148.248 213.604 148.224 213.646 148.196 213.684Z" fill="#263238"/>
<path d="M103.992 95.1072C104.293 113.666 89.2485 129.004 70.4579 129.295C51.6673 129.586 36.1479 114.738 35.833 96.179C35.5181 77.6205 50.5722 62.2821 69.3628 61.991C88.1534 61.7 103.692 76.5533 103.992 95.1072ZM53.6178 95.9064C53.685 99.0703 54.7042 102.144 56.5467 104.739C58.3892 107.334 60.9725 109.334 63.9704 110.488C66.9684 111.641 70.2467 111.896 73.3917 111.219C76.5367 110.543 79.4074 108.966 81.6416 106.687C83.8757 104.409 85.3732 101.531 85.945 98.4166C86.5167 95.3023 86.1372 92.0913 84.8543 89.1889C83.5714 86.2864 81.4426 83.8225 78.7366 82.1082C76.0305 80.3938 72.8685 79.5058 69.6495 79.5563C65.3188 79.6376 61.198 81.4052 58.1921 84.4708C55.1862 87.5364 53.541 91.6494 53.6178 95.9064Z" fill="#E0E0E0"/>
<path d="M103.992 95.1074C104.293 113.666 89.2485 129.004 70.4579 129.295L70.1712 111.739C74.5128 111.671 78.6491 109.911 81.6702 106.845C84.6913 103.779 86.3496 99.6592 86.2804 95.3915C86.2113 91.1238 84.4202 87.0579 81.3013 84.0882C78.1824 81.1186 73.9911 79.4885 69.6495 79.5565L69.3628 62.0005C88.1534 61.6955 103.687 76.5535 103.992 95.1074Z" fill="#455A64"/>
<path d="M70.2275 129.536L69.9361 111.518H70.1711C73.3563 111.453 76.4509 110.464 79.0654 108.674C81.6798 106.885 83.6971 104.375 84.8634 101.461C86.0297 98.5466 86.2928 95.3583 85.6195 92.2974C84.9462 89.2365 83.3667 86.4399 81.0798 84.2595C79.5716 82.8074 77.7849 81.6642 75.8235 80.8965C73.8621 80.1288 71.765 79.7518 69.6541 79.7874H69.4191L69.123 61.7694H69.358C78.4766 61.6546 87.2691 65.1002 93.8062 71.3503C100.343 77.6003 104.091 86.1442 104.227 95.1073C104.528 113.795 89.3847 129.24 70.4625 129.54L70.2275 129.536ZM70.4108 111.98L70.6881 129.074C89.2437 128.653 104.058 113.467 103.757 95.1165C103.624 86.316 99.9603 77.9232 93.5641 71.7639C87.1679 65.6046 78.5563 62.1771 69.6024 62.2268L69.8797 79.3208C74.2147 79.3564 78.3638 81.0566 81.4408 84.0583C84.5179 87.06 86.2792 91.1254 86.3485 95.3862C86.4178 99.647 84.7897 103.766 81.8119 106.862C78.8341 109.959 74.7425 111.789 70.4108 111.961V111.98Z" fill="#455A64"/>
<path d="M73.5174 132.003C51.5355 132.354 33.9951 115.583 33.6426 93.869L54.4495 93.541C54.6187 103.922 62.6557 110.455 73.1649 110.289L73.5174 132.003Z" fill="#FF922F"/>
<path d="M45.5898 94.2479C45.7214 94.3357 43.7568 97.371 41.2 101.016C38.6432 104.661 36.4577 107.554 36.3261 107.484C36.1945 107.415 38.1638 104.361 40.7206 100.711C43.2774 97.0615 45.4629 94.137 45.5898 94.2479Z" fill="#263238"/>
<path d="M54.6423 95.9342C54.7739 96.0266 51.8646 100.402 48.1469 105.71C44.4292 111.019 41.299 115.246 41.1674 115.158C41.0358 115.07 43.9451 110.695 47.6675 105.387C51.3899 100.078 54.5201 95.8464 54.6423 95.9342Z" fill="#263238"/>
<path d="M59.0415 105.031C59.1778 105.119 56.5552 109.083 53.1947 113.878C49.8342 118.674 47.0001 122.49 46.8685 122.402C46.7369 122.314 49.3548 118.35 52.7153 113.555C56.0758 108.759 58.9099 104.939 59.0415 105.031Z" fill="#263238"/>
<path d="M66.7025 110.062C66.8341 110.15 64.2162 114.109 60.8557 118.91C57.4952 123.71 54.6611 127.512 54.5201 127.433C54.3791 127.355 57.0064 123.382 60.3716 118.582C63.7368 113.781 66.5709 109.956 66.7025 110.062Z" fill="#263238"/>
<path d="M73.2634 116.424C73.3997 116.516 71.2565 119.792 68.4882 123.747C65.7199 127.701 63.3605 130.852 63.2289 130.746C63.0973 130.64 65.2358 127.378 68.0088 123.423C70.7818 119.469 73.1318 116.355 73.2634 116.424Z" fill="#263238"/>
<path d="M181.777 31.0278C181.777 31.0278 183.831 26.3801 183.93 25.6502C184.028 24.9202 183.826 23.3078 183.295 22.8782C183.074 22.6683 182.791 22.5332 182.487 22.4925C182.183 22.4518 181.873 22.5076 181.603 22.6518C181.57 22.359 181.443 22.0843 181.24 21.8675C181.037 21.6507 180.769 21.503 180.475 21.446C180.358 21.4055 180.233 21.3936 180.11 21.4113C179.987 21.429 179.871 21.4758 179.77 21.5476C179.67 21.6194 179.589 21.7141 179.534 21.8236C179.479 21.933 179.452 22.0539 179.455 22.1759C179.462 21.9679 179.394 21.7641 179.264 21.6002C179.133 21.4364 178.948 21.3229 178.741 21.2796C178.469 21.2373 178.19 21.2776 177.942 21.3951C177.942 21.3951 176.941 20.5173 176.269 21.0625C175.597 21.6077 176.372 30.0761 176.372 30.0761L181.777 31.0278Z" fill="#FFBF9D"/>
<path d="M176.25 29.1059C176.25 29.1059 174.417 26.0059 174.426 25.1604C174.436 24.3149 175.465 22.3884 176.038 22.1574C176.612 21.9264 178.858 21.4136 178.858 21.4136C178.858 21.4136 179.798 22.2683 178.412 23.1137L176.842 24.0239C176.842 24.0239 179.361 24.8509 179.281 27.3826" fill="#FFBF9D"/>
<path d="M179.282 27.3595C179.241 26.9619 179.163 26.569 179.047 26.1861C178.881 25.7624 178.63 25.3759 178.309 25.0495C177.885 24.6294 177.373 24.3047 176.809 24.0978L176.598 24.0193L176.791 23.913L178.389 22.989C178.661 22.8383 178.877 22.6049 179.004 22.3237C179.049 22.179 179.052 22.0247 179.012 21.8785C178.972 21.7323 178.891 21.6 178.779 21.4968L178.887 21.5245L177.679 21.8063L176.739 22.0512C176.584 22.0974 176.429 22.1389 176.269 22.1898C176.197 22.2116 176.126 22.2378 176.057 22.2683C175.999 22.3017 175.944 22.3403 175.893 22.3838C175.5 22.8109 175.182 23.2997 174.953 23.8299C174.831 24.0725 174.729 24.3243 174.647 24.5829C174.561 24.8148 174.527 25.0623 174.549 25.3083C174.66 25.7555 174.818 26.1905 175.019 26.6065C175.376 27.3873 175.705 27.9925 175.926 28.4314C176.049 28.6489 176.157 28.8742 176.25 29.1059C176.092 28.9113 175.954 28.7024 175.836 28.4822C175.592 28.0664 175.24 27.4612 174.859 26.6804C174.639 26.2552 174.467 25.8074 174.347 25.3452C174.312 25.0695 174.343 24.7898 174.436 24.5275C174.521 24.2582 174.623 23.9944 174.741 23.7375C174.984 23.1759 175.325 22.6601 175.747 22.2129C175.814 22.1532 175.888 22.102 175.968 22.0604C176.045 22.0252 176.123 21.9944 176.203 21.968C176.358 21.9172 176.518 21.871 176.673 21.8294C176.986 21.7432 177.3 21.66 177.613 21.5799L178.83 21.2981H178.896L178.938 21.3397C179.085 21.4747 179.19 21.648 179.241 21.8394C179.292 22.0307 179.286 22.2324 179.225 22.4208C179.078 22.7505 178.825 23.0245 178.506 23.2015L176.885 24.0886V23.9038C177.473 24.129 178.003 24.4811 178.436 24.934C178.767 25.2819 179.017 25.6965 179.169 26.1491C179.222 26.3147 179.26 26.4849 179.282 26.6573C179.306 26.7837 179.315 26.9123 179.31 27.0408C179.315 27.1478 179.305 27.2549 179.282 27.3595Z" fill="#FF9A6C"/>
<path d="M179.268 22.2361C179.014 23.1376 178.924 24.0758 179 25.0081C178.999 25.3217 179.107 25.6263 179.305 25.872C179.416 25.9769 179.55 26.0537 179.698 26.0955C179.845 26.1374 180.001 26.1432 180.151 26.1123C180.455 26.0407 180.729 25.8795 180.936 25.6503" fill="#FFBF9D"/>
<path d="M180.95 25.6872C180.95 25.6872 180.8 26.006 180.278 26.1908C180.121 26.2407 179.955 26.2541 179.792 26.2301C179.629 26.206 179.473 26.1451 179.338 26.0522C179.193 25.9174 179.078 25.7538 179.002 25.5722C178.926 25.3906 178.89 25.1951 178.896 24.9988C178.783 24.0568 178.919 23.1019 179.291 22.2268C179.161 23.1356 179.11 24.0538 179.141 24.9711C179.133 25.1351 179.16 25.299 179.218 25.4529C179.276 25.6068 179.365 25.7478 179.479 25.8674C179.588 25.9447 179.712 25.9983 179.843 26.0246C179.974 26.0508 180.11 26.0492 180.241 26.0198C180.489 25.9363 180.728 25.8247 180.95 25.6872Z" fill="#FF9A6C"/>
<path d="M177.251 23.9084C177.132 24.2325 177.106 24.5826 177.176 24.9202C177.176 25.1376 177.246 25.3494 177.375 25.5259C177.504 25.7024 177.686 25.8347 177.895 25.9043C178.252 25.9874 178.713 25.5208 178.924 25.0311" fill="#FFBF9D"/>
<path d="M178.924 25.031C178.948 25.031 178.924 25.262 178.703 25.5531C178.585 25.7304 178.423 25.8764 178.233 25.9781C178.096 26.0314 177.943 26.0314 177.806 25.9781C177.665 25.932 177.537 25.8527 177.434 25.7471C177.247 25.552 177.128 25.3024 177.096 25.0356C177.085 24.8325 177.085 24.6289 177.096 24.4258C177.096 24.0608 177.27 23.876 177.289 23.8899C177.308 23.9037 177.246 24.107 177.289 24.4258L177.355 25.0033C177.393 25.2193 177.494 25.4198 177.646 25.5808C177.723 25.6574 177.816 25.7172 177.919 25.7564C178.004 25.791 178.101 25.791 178.186 25.7564C178.354 25.6813 178.504 25.5709 178.624 25.433C178.793 25.2066 178.887 25.0172 178.924 25.031Z" fill="#FF9A6C"/>
<path d="M181.773 22.6934C181.256 23.2451 180.88 23.9104 180.678 24.6338C180.6 24.8137 180.573 25.011 180.601 25.2046C180.628 25.3982 180.708 25.5809 180.833 25.7333C181.006 25.8473 181.212 25.9046 181.42 25.8971C181.629 25.8896 181.829 25.8178 181.994 25.6917C182.263 25.5258 182.494 25.3073 182.674 25.0498C182.853 24.7923 182.977 24.5013 183.037 24.1949" fill="#FFBF9D"/>
<path d="M183.037 24.1947C183.049 24.5277 182.942 24.8543 182.736 25.1187C182.538 25.426 182.265 25.6799 181.942 25.8579C181.743 25.9654 181.52 26.0241 181.293 26.0289C181.162 26.0314 181.032 26.0014 180.915 25.9417C180.799 25.882 180.699 25.7944 180.626 25.687C180.498 25.4741 180.45 25.2242 180.49 24.9801C180.516 24.77 180.568 24.5637 180.645 24.3657C180.763 24.0403 180.921 23.73 181.115 23.4417C181.273 23.1562 181.496 22.9109 181.768 22.7256C181.796 22.7533 181.547 23.0259 181.26 23.5295C181.094 23.8231 180.958 24.1327 180.856 24.4535C180.789 24.6368 180.744 24.8277 180.725 25.0217C180.696 25.2122 180.731 25.4065 180.823 25.5761C181.035 25.9041 181.519 25.8395 181.834 25.6778C182.13 25.5242 182.388 25.3062 182.586 25.0402C182.761 24.7718 182.912 24.4889 183.037 24.1947Z" fill="#FF9A6C"/>
<path d="M156.261 60.7945C156.261 60.7945 158.809 58.0918 159.814 57.4866C160.82 56.8814 167.447 49.1151 168.148 47.0731C168.848 45.0311 175.348 28.6254 175.198 28.8472C175.047 29.069 183.451 30.5797 183.451 30.5797C183.451 30.5797 177.223 49.5217 176.462 51.6654C175.089 55.5878 168.289 63.5295 164.416 68.2974C162.761 70.3256 160.477 76.8213 160.477 76.8213L156.261 60.7945Z" fill="#263238"/>
<path d="M162.334 70.9817C162.207 70.4957 162.127 69.9992 162.094 69.4987C161.986 68.5747 161.887 67.2995 161.864 65.8858C161.84 64.4721 161.892 63.1877 161.967 62.2637C161.986 61.762 162.049 61.2627 162.155 60.7715C162.191 61.2714 162.191 61.7731 162.155 62.273C162.122 63.197 162.099 64.4721 162.122 65.8812C162.146 67.2903 162.216 68.5608 162.282 69.4848C162.336 69.9819 162.353 70.4822 162.334 70.9817Z" fill="#455A64"/>
<path d="M120.32 167.41L116.739 174.585L116.269 176.341C116.269 176.341 118.661 186.999 117.166 188.052L106.507 171.138L109.252 169.438L112.669 162.268L120.32 167.41Z" fill="#455A64"/>
<path d="M106.535 171.139L107.884 170.376L117.599 186.879C117.599 186.879 117.759 187.826 117.195 188.052L106.535 171.139Z" fill="#263238"/>
<path d="M116.56 176.562C116.475 176.609 116.179 176.22 115.667 175.966C115.155 175.712 114.685 175.708 114.671 175.611C114.657 175.514 115.192 175.356 115.803 175.671C116.414 175.985 116.635 176.535 116.56 176.562Z" fill="#263238"/>
<path d="M116.964 178.794C116.898 178.859 116.537 178.586 116.024 178.507C115.512 178.429 115.084 178.572 115.056 178.507C115.028 178.443 115.427 178.092 116.062 178.198C116.696 178.304 117.03 178.72 116.964 178.794Z" fill="#263238"/>
<path d="M115.554 181.03C115.488 180.965 115.817 180.605 116.386 180.568C116.955 180.531 117.368 180.794 117.326 180.868C117.284 180.942 116.898 180.868 116.433 180.901C115.968 180.933 115.62 181.104 115.554 181.03Z" fill="#263238"/>
<path d="M156.849 114.627C156.501 115.44 138.519 142.499 134.829 145.507C131.14 148.514 118.548 173.194 118.548 173.194C118.548 173.194 108.26 168.293 108.03 168.824C107.799 169.355 115.244 151.402 119.686 144.028C124.127 136.655 126.2 133.804 126.2 133.804L135.036 110.644C135.036 110.644 135.219 103.017 136.352 100.051C137.485 97.0846 140.812 94.5066 140.812 94.5066L156.849 114.627Z" fill="#263238"/>
<path d="M140.653 147.327L131.088 148.002C131.088 148.002 128.635 158.3 126.858 158.604L124.752 139.431L139.604 137.75L140.653 147.327Z" fill="#455A64"/>
<path d="M131.243 141.986C131.177 141.805 131.043 141.655 130.868 141.569C130.692 141.483 130.49 141.467 130.303 141.524C130.128 141.599 129.987 141.735 129.907 141.905C129.827 142.076 129.814 142.269 129.87 142.448C129.944 142.632 130.086 142.782 130.267 142.867C130.448 142.953 130.656 142.968 130.848 142.91C131.025 142.812 131.159 142.653 131.222 142.463C131.286 142.273 131.275 142.067 131.191 141.885" fill="#E0E0E0"/>
<path d="M124.776 139.431L126.28 139.325L127.732 157.745C127.732 157.745 127.469 158.637 126.881 158.604L124.776 139.431Z" fill="#263238"/>
<path d="M131.22 148.302C131.126 148.302 131.036 147.84 130.693 147.415C130.35 146.99 129.946 146.782 129.974 146.69C130.002 146.597 130.538 146.69 130.942 147.212C131.346 147.734 131.304 148.302 131.22 148.302Z" fill="#263238"/>
<path d="M130.66 150.399C130.575 150.427 130.378 150.039 129.96 149.762C129.541 149.485 129.128 149.438 129.123 149.346C129.118 149.254 129.621 149.138 130.134 149.489C130.646 149.84 130.721 150.386 130.66 150.399Z" fill="#263238"/>
<path d="M128.442 151.79C128.414 151.707 128.851 151.527 129.382 151.716C129.913 151.906 130.143 152.317 130.073 152.368C130.002 152.418 129.711 152.174 129.278 152.026C128.846 151.878 128.461 151.882 128.442 151.79Z" fill="#263238"/>
<path d="M133.377 147.895C133.292 147.868 133.377 147.433 133.278 146.897C133.179 146.361 132.977 145.973 133.048 145.918C133.118 145.863 133.49 146.223 133.588 146.842C133.687 147.461 133.48 147.932 133.377 147.895Z" fill="#263238"/>
<path d="M132.277 107.531C132.277 107.531 132.253 116.549 136.418 119.593C140.582 122.638 155.02 134.096 155.02 134.096L131.967 137.967L133.692 148.473C133.692 148.473 164.81 145.387 168.617 144.135C172.424 142.883 175.165 136.549 172.185 132.123C170.685 129.914 155.194 108.265 155.194 108.265L154.724 102.458L135.196 103.668L132.277 107.531Z" fill="#263238"/>
<path d="M133.692 148.473C133.672 148.414 133.658 148.354 133.649 148.293C133.621 148.154 133.588 147.974 133.546 147.748C133.457 147.253 133.334 146.556 133.179 145.659C132.869 143.811 132.423 141.206 131.877 137.981V137.893H131.967L153.013 134.326L155.011 133.989L154.954 134.202C151.707 131.564 148.619 129.078 145.804 126.847L141.799 123.705C140.544 122.73 139.336 121.857 138.34 120.933C136.756 119.509 135.376 117.88 134.237 116.091C133.929 115.606 133.651 115.103 133.405 114.585C133.316 114.41 133.259 114.271 133.222 114.179C133.199 114.133 133.183 114.085 133.175 114.035C133.202 114.078 133.226 114.123 133.245 114.169C133.287 114.262 133.353 114.396 133.447 114.567C133.709 115.072 133.998 115.564 134.312 116.04C135.476 117.801 136.868 119.405 138.453 120.813C139.449 121.714 140.657 122.573 141.917 123.548C143.176 124.523 144.53 125.562 145.94 126.671C148.76 128.898 151.862 131.374 155.11 134.012L155.316 134.179L155.053 134.22L153.056 134.557L132 138.064L132.075 137.962C132.587 141.196 133.015 143.821 133.292 145.65C133.428 146.551 133.537 147.253 133.612 147.748C133.645 147.979 133.668 148.159 133.687 148.297C133.695 148.355 133.697 148.414 133.692 148.473Z" fill="#455A64"/>
<path d="M161.238 134.747C161.238 134.816 159.871 134.424 158.16 134.248C156.449 134.072 155.044 134.169 155.039 134.096C155.336 134.006 155.645 133.96 155.956 133.962C156.698 133.917 157.444 133.934 158.183 134.012C158.924 134.086 159.657 134.223 160.374 134.424C160.678 134.484 160.97 134.593 161.238 134.747Z" fill="#455A64"/>
<path d="M147.007 31.8779C147.147 31.4665 147.412 31.1073 147.767 30.8494C148.122 30.5915 148.549 30.4473 148.99 30.4365C149.434 29.9635 150.026 29.6504 150.672 29.5474C151.317 29.4444 151.98 29.5573 152.553 29.8682C152.894 29.5834 153.305 29.39 153.745 29.3065C154.185 29.223 154.639 29.2523 155.064 29.3916C155.489 29.5309 155.871 29.7754 156.172 30.1016C156.473 30.4279 156.683 30.8248 156.783 31.2542C157.216 31.114 157.682 31.1074 158.119 31.2355C158.556 31.3635 158.942 31.6199 159.227 31.9703C159.499 32.3318 159.653 32.766 159.669 33.2156C159.685 33.6652 159.562 34.109 159.316 34.4882C159.833 34.5563 160.306 34.8107 160.643 35.2022C160.981 35.5937 161.158 36.0943 161.141 36.607C161.124 37.1197 160.914 37.6079 160.552 37.977C160.189 38.3461 159.7 38.5698 159.18 38.6046L147.829 34.1879C147.467 33.9332 147.193 33.5745 147.046 33.161C146.898 32.7475 146.885 32.2993 147.007 31.8779Z" fill="#263238"/>
<path d="M159.565 38.8357C158.99 36.711 157.626 34.8757 155.741 33.6925C153.856 32.5094 151.587 32.0647 149.385 32.4462L148.915 32.5248C144.088 33.6798 143.369 38.3968 144.685 43.1508L148.431 60.984L157.408 66.2277L158.489 62.333V55.9851C158.489 55.9851 163.048 54.4282 162.249 49.7805C161.849 47.5121 160.674 42.966 159.565 38.8357Z" fill="#FFBF9D"/>
<path d="M158.512 55.9482C156.334 56.3375 154.087 56.1017 152.041 55.269C152.041 55.269 153.878 58.6047 158.48 57.348L158.512 55.9482Z" fill="#FF9A6C"/>
<path d="M158.982 43.2063C159.017 43.3777 158.982 43.5557 158.884 43.7018C158.787 43.8479 158.635 43.9504 158.461 43.987C158.377 44.0092 158.29 44.0148 158.205 44.0035C158.119 43.9922 158.037 43.9642 157.962 43.9212C157.888 43.8781 157.823 43.8209 157.771 43.7529C157.72 43.6849 157.682 43.6074 157.662 43.525C157.627 43.353 157.662 43.1745 157.759 43.0276C157.857 42.8808 158.009 42.7774 158.183 42.7396C158.267 42.7175 158.354 42.7121 158.44 42.7237C158.526 42.7353 158.609 42.7637 158.683 42.8072C158.757 42.8507 158.822 42.9084 158.874 42.977C158.925 43.0455 158.962 43.1235 158.982 43.2063Z" fill="#263238"/>
<path d="M159.072 41.5107C159.001 41.6123 158.428 41.3305 157.709 41.4645C156.99 41.5984 156.51 42.042 156.43 41.9727C156.35 41.9034 156.43 41.7694 156.642 41.5615C156.912 41.2907 157.262 41.1112 157.643 41.0487C158.018 40.9798 158.405 41.0317 158.747 41.1965C159.001 41.3212 159.105 41.4645 159.072 41.5107Z" fill="#263238"/>
<path d="M152.689 44.6014C152.724 44.7734 152.689 44.952 152.591 45.0988C152.494 45.2457 152.341 45.3491 152.167 45.3868C152.084 45.4083 151.997 45.4134 151.912 45.4018C151.826 45.3903 151.744 45.3622 151.67 45.3192C151.596 45.2763 151.531 45.2193 151.479 45.1516C151.427 45.0839 151.389 45.0069 151.368 44.9248C151.333 44.7534 151.368 44.5754 151.466 44.4293C151.564 44.2832 151.716 44.1807 151.89 44.144C151.973 44.1218 152.06 44.116 152.145 44.127C152.23 44.138 152.312 44.1656 152.387 44.2082C152.461 44.2508 152.526 44.3075 152.578 44.375C152.63 44.4425 152.668 44.5194 152.689 44.6014Z" fill="#263238"/>
<path d="M152.158 42.6425C152.087 42.7442 151.514 42.467 150.795 42.5963C150.076 42.7257 149.611 43.1784 149.517 43.1045C149.423 43.0306 149.517 42.9012 149.723 42.6933C149.997 42.4248 150.348 42.2457 150.729 42.1805C151.104 42.1121 151.491 42.1639 151.834 42.3284C152.087 42.4577 152.191 42.5963 152.158 42.6425Z" fill="#263238"/>
<path d="M155.505 47.5027C155.862 47.3151 156.243 47.1738 156.637 47.0823C156.821 47.0315 156.985 46.9668 156.994 46.8374C156.977 46.6466 156.9 46.4658 156.774 46.32L155.97 45.031C154.851 43.183 154.005 41.6676 154.09 41.6214C154.174 41.5752 155.133 43.0351 156.252 44.8554C156.524 45.3174 156.788 45.7425 157.032 46.1583C157.189 46.3573 157.271 46.6041 157.262 46.8559C157.247 46.9245 157.217 46.9888 157.173 47.0441C157.129 47.0993 157.073 47.144 157.009 47.1747C156.912 47.2216 156.809 47.2557 156.703 47.2763C156.314 47.399 155.912 47.475 155.505 47.5027Z" fill="#263238"/>
<path d="M153.474 48.376C153.591 48.3483 153.737 49.1198 154.508 49.5495C155.279 49.9791 156.096 49.7435 156.12 49.8498C156.143 49.956 155.965 50.0346 155.612 50.1085C155.155 50.1952 154.681 50.1217 154.273 49.9006C153.881 49.6831 153.59 49.3257 153.46 48.9027C153.37 48.5839 153.422 48.3806 153.474 48.376Z" fill="#263238"/>
<path d="M151.81 40.6052C151.758 40.8085 151.105 40.753 150.353 40.9009C149.601 41.0487 148.999 41.3121 148.891 41.1411C148.84 41.0626 148.934 40.8685 149.169 40.6791C149.47 40.4323 149.831 40.2653 150.217 40.194C150.603 40.1178 151.002 40.1465 151.373 40.2772C151.66 40.365 151.81 40.5128 151.81 40.6052Z" fill="#263238"/>
<path d="M158.545 39.5888C158.465 39.7782 157.934 39.7413 157.342 39.8891C156.75 40.0369 156.289 40.2818 156.129 40.1432C156.059 40.0785 156.092 39.8983 156.27 39.6812C156.51 39.4214 156.824 39.2385 157.171 39.1561C157.518 39.0737 157.882 39.0957 158.216 39.2192C158.465 39.3486 158.578 39.4964 158.545 39.5888Z" fill="#263238"/>
<path d="M158.719 36.7889C158.719 36.7889 156.947 34.1047 155.406 33.6843C153.526 33.1669 153.145 35.1627 151.425 35.001C149.704 34.8393 147.928 34.345 146.485 35.8927C144.91 37.5882 145.944 38.3921 146.212 40.4711C147.293 48.8933 146.212 51.5314 145.028 47.6783C144.901 47.2579 143.618 47.1285 143.11 45.3406C142.443 43.0306 141.823 40.18 142.048 38.4106C142.236 36.9183 142.866 35.8003 144.13 34.4651C146.118 32.3537 149.277 31.7531 151.462 31.5822C153.648 31.4113 158.244 33.1207 158.719 36.7889Z" fill="#263238"/>
<path d="M145.897 47.392C145.861 47.2235 145.789 47.0641 145.688 46.9234C145.587 46.7827 145.458 46.6636 145.308 46.5733C145.159 46.4831 144.993 46.4235 144.819 46.3983C144.646 46.373 144.469 46.3826 144.299 46.4264C143.439 46.662 142.556 47.3504 142.941 49.106C143.632 52.2568 146.701 50.9309 146.678 50.8385C146.654 50.7461 146.198 48.7087 145.897 47.392Z" fill="#FFBF9D"/>
<path d="M145.724 49.7989C145.724 49.7989 145.677 49.8497 145.592 49.9144C145.472 49.9965 145.323 50.0296 145.179 50.0068C144.947 49.9194 144.743 49.7735 144.587 49.5836C144.431 49.3938 144.328 49.1669 144.29 48.9257C144.227 48.6551 144.227 48.374 144.29 48.1034C144.298 47.9991 144.332 47.8983 144.388 47.8098C144.445 47.7212 144.522 47.6475 144.615 47.5952C144.675 47.5655 144.745 47.5575 144.811 47.5727C144.877 47.5879 144.935 47.6252 144.976 47.6783C145.038 47.7569 145.033 47.8216 145.047 47.8262C145.061 47.8308 145.103 47.7569 145.047 47.6321C145.012 47.5581 144.952 47.498 144.878 47.4612C144.826 47.4402 144.771 47.4294 144.716 47.4294C144.66 47.4294 144.605 47.4402 144.553 47.4612C144.429 47.5158 144.321 47.6003 144.239 47.7069C144.157 47.8135 144.103 47.9387 144.083 48.071C144.007 48.3745 144.007 48.6916 144.083 48.995C144.129 49.2788 144.258 49.543 144.456 49.7549C144.653 49.9669 144.909 50.1171 145.193 50.187C145.281 50.1905 145.368 50.1749 145.45 50.1413C145.531 50.1078 145.604 50.0572 145.663 49.993C145.733 49.8959 145.738 49.8035 145.724 49.7989Z" fill="#FF9A6C"/>
<path d="M144.229 41.3442C144.681 41.5904 145.188 41.7207 145.705 41.7231C145.96 41.7149 146.203 41.6172 146.391 41.4477C146.579 41.2782 146.699 41.048 146.729 40.7991C146.729 40.5727 146.626 40.3371 146.729 40.1292C146.833 39.9213 147.199 39.9028 147.477 39.8843C147.956 39.835 148.403 39.6238 148.741 39.2868C149.08 38.9499 149.289 38.5079 149.333 38.0363C149.505 38.1679 149.721 38.231 149.937 38.213C150.154 38.195 150.356 38.0973 150.503 37.9393C150.788 37.6124 151.025 37.2486 151.208 36.8582C151.3 36.6634 151.44 36.494 151.614 36.3651C151.789 36.2361 151.994 36.1516 152.209 36.119C152.449 36.1558 152.692 36.1651 152.933 36.1467C153.347 36.0358 153.464 35.5092 153.45 35.0841C153.436 34.6591 153.399 34.1601 153.713 33.8829C154.053 33.6722 154.458 33.5886 154.856 33.6473C155.25 33.6473 155.734 33.4533 155.767 33.0606C155.765 32.9572 155.742 32.8554 155.699 32.761C155.656 32.6666 155.595 32.5815 155.518 32.5108C155.188 32.1732 154.751 31.956 154.279 31.8947C153.806 31.8335 153.327 31.9318 152.919 32.1735C152.668 31.6726 152.271 31.2568 151.778 30.9795C151.285 30.7022 150.719 30.576 150.153 30.6173C149.587 30.6585 149.046 30.8652 148.6 31.2108C148.154 31.5565 147.823 32.0252 147.65 32.557C147.254 32.3114 146.803 32.1642 146.335 32.1282C145.868 32.0922 145.399 32.1684 144.968 32.3502C144.538 32.5321 144.159 32.8142 143.864 33.1721C143.568 33.5301 143.366 33.9532 143.275 34.405C142.863 34.3789 142.453 34.47 142.093 34.6675C141.732 34.865 141.438 35.1605 141.244 35.5184C141.061 35.8825 140.986 36.2903 141.03 36.6944C141.073 37.0985 141.232 37.4821 141.489 37.8007C141.217 38.0006 141.001 38.2655 140.862 38.5703C140.723 38.8751 140.665 39.2097 140.694 39.5424C140.803 40.1985 141.569 40.739 142.18 40.4664C142.113 40.7443 142.149 41.0364 142.282 41.2904C142.415 41.5444 142.635 41.7436 142.903 41.8524C143.184 41.9412 143.489 41.9258 143.759 41.8092C144.029 41.6926 144.246 41.4828 144.37 41.2195" fill="#263238"/>
<path d="M141.94 40.4805C141.948 40.5931 141.98 40.7028 142.034 40.8024C142.089 40.9019 142.164 40.989 142.255 41.058C142.45 41.2298 142.703 41.3237 142.965 41.3213C143.132 41.3176 143.297 41.2776 143.448 41.2041C143.598 41.1307 143.73 41.0256 143.834 40.8963H143.693C143.918 41.1655 144.186 41.3965 144.487 41.58C144.687 41.7043 144.909 41.7905 145.141 41.8341C145.36 41.8727 145.585 41.8535 145.794 41.7787C145.978 41.7315 146.15 41.645 146.296 41.5252C146.442 41.4054 146.56 41.2553 146.64 41.0857C146.731 40.8608 146.777 40.6209 146.776 40.3788C146.776 40.2079 146.776 40.1155 146.753 40.1155C146.724 40.1975 146.707 40.283 146.701 40.3696C146.677 40.5967 146.615 40.8183 146.518 41.0256C146.424 41.1821 146.299 41.3177 146.149 41.4236C145.999 41.5294 145.828 41.6033 145.648 41.6403C145.467 41.6773 145.28 41.6766 145.1 41.6384C144.92 41.6002 144.749 41.5252 144.6 41.4183C144.309 41.2472 144.046 41.0338 143.82 40.7854L143.745 40.7022L143.679 40.79C143.592 40.9008 143.482 40.992 143.357 41.0573C143.231 41.1227 143.092 41.1607 142.95 41.1688C142.721 41.1809 142.496 41.1103 142.316 40.9702C142.159 40.8331 142.031 40.6666 141.94 40.4805Z" fill="#455A64"/>
<path d="M146.673 32.1597C146.673 32.1597 146.762 32.1597 146.913 32.2013C147.135 32.25 147.337 32.3645 147.491 32.5293L147.538 32.5848L147.571 32.5155C147.876 31.9089 148.332 31.3878 148.896 31.0001C149.257 30.747 149.669 30.5736 150.104 30.4919C150.578 30.4084 151.066 30.4564 151.514 30.6305C151.868 30.7679 152.188 30.9773 152.454 31.245C152.7 31.4966 152.882 31.8022 152.985 32.1366L153.013 32.2383L153.107 32.1921C153.487 32.0107 153.92 31.9679 154.329 32.0711C154.738 32.1743 155.096 32.417 155.34 32.7557C155.53 33.0336 155.657 33.3489 155.711 33.6797C155.731 33.5914 155.731 33.5 155.711 33.4118C155.668 33.1637 155.572 32.9274 155.429 32.7188C155.215 32.3874 154.896 32.1342 154.522 31.998C154.283 31.9111 154.028 31.8717 153.773 31.882C153.518 31.8923 153.268 31.9522 153.037 32.0581L153.154 32.1135C153.052 31.7475 152.858 31.4124 152.59 31.1387C152.266 30.8095 151.865 30.5635 151.421 30.4225C150.978 30.2816 150.506 30.2499 150.047 30.3302C149.59 30.422 149.158 30.6078 148.778 30.8754C148.199 31.2845 147.742 31.84 147.458 32.4831H147.542C147.368 32.3127 147.142 32.2025 146.898 32.169C146.757 32.1274 146.673 32.1505 146.673 32.1597Z" fill="#455A64"/>
<path d="M152.031 109.175C152.478 109.212 154.005 109.743 155.989 106.135C157.972 102.527 159.876 89.166 159.876 89.166L152.031 109.175Z" fill="#E0E0E0"/>
<path d="M160.589 84.0146L160.815 71.1017L158.174 61.2195C158.174 61.2195 156.327 58.3736 154.31 56.9275C153.008 55.9474 151.521 55.2313 149.935 54.8208L146.908 54.1001L146.583 56.5672L155.368 66.4725L160.589 84.0146Z" fill="#E0E0E0"/>
<path d="M146.64 54.978C146.64 54.978 153.869 55.5879 157.366 64.1764C159.246 68.7964 160.388 81.1549 160.609 83.0861C160.83 85.0173 160.092 89.4478 158.752 95.4169C158.489 96.5765 157.544 99.6257 154.969 107.022C152.21 114.932 150.01 120.771 150.01 120.771L126.896 111.993L138.392 92.1736C138.392 92.1736 137.785 86.066 137.814 85.4839C138.035 80.9424 137.137 78.3876 138.664 69.6604C139.113 67.0518 140.045 64.5464 141.414 62.2684C142.871 59.8614 143.947 59.1406 146.419 57.3296L146.64 54.978Z" fill="#263238"/>
<path d="M149.113 109.115L149.724 104.324L138.702 99.9304L136.69 104.509L149.113 109.115Z" fill="#263238"/>
<path d="M149.112 109.115L148.863 109.009L148.158 108.732L145.559 107.734L136.732 104.412L136.803 104.569L138.514 100.693L138.819 99.9906L138.655 100.06L149.69 104.412L149.639 104.324C149.474 105.78 149.338 106.967 149.244 107.812C149.202 108.214 149.169 108.533 149.14 108.778C149.112 109.023 149.108 109.12 149.112 109.124C149.139 109.023 149.158 108.919 149.169 108.815C149.206 108.579 149.253 108.27 149.31 107.891C149.432 107.032 149.601 105.83 149.808 104.352V104.287L149.747 104.264L138.739 99.8336L138.65 99.792L138.603 99.9029C138.504 100.134 138.401 100.365 138.298 100.6C137.705 101.95 137.132 103.257 136.596 104.486L136.544 104.601L136.662 104.643L145.62 107.905L148.21 108.829L148.896 109.069C148.966 109.091 149.039 109.106 149.112 109.115Z" fill="#455A64"/>
<path d="M158.249 97.02C158.242 97.0625 158.231 97.1043 158.216 97.1448L158.103 97.5005L157.633 98.8865C157.224 100.092 156.646 101.806 155.927 103.913L150.217 120.471L150.094 120.822L150.052 120.942L149.935 120.896L133.588 114.645L128.658 112.728L127.323 112.197L126.98 112.053L126.862 111.993L126.989 112.03L127.342 112.151L128.691 112.64L133.649 114.488L150.019 120.679L149.859 120.753C149.902 120.642 149.939 120.522 149.982 120.402C152.238 113.934 154.282 108.113 155.767 103.862C156.51 101.765 157.116 100.06 157.544 98.8588L158.061 97.482C158.113 97.3388 158.16 97.2233 158.192 97.1309C158.225 97.0385 158.244 97.02 158.249 97.02Z" fill="#455A64"/>
<path d="M124.273 122.319C124.273 122.319 127.004 113.573 129.33 112.977C131.657 112.381 134.73 112.289 135.271 113.781C135.936 115.662 136.239 117.649 136.164 119.639C136.007 121.472 135.7 123.288 135.247 125.073L132.874 124.347C132.874 124.347 134.754 115.468 134.251 114.012C133.748 112.557 129.828 112.908 129.109 114.419C128.39 115.93 126.106 122.873 126.106 122.873L124.273 122.319Z" fill="#455A64"/>
<path d="M113.364 133.324C114.196 129.66 116.142 121.603 117.002 118.078C117.114 117.614 117.405 117.21 117.813 116.952C118.221 116.693 118.715 116.6 119.192 116.692L141.47 121.007C141.948 121.1 142.371 121.373 142.649 121.766C142.927 122.16 143.039 122.645 142.96 123.118L140.445 138.337C140.405 138.58 140.316 138.813 140.183 139.022C140.049 139.231 139.875 139.412 139.669 139.554C139.464 139.695 139.232 139.795 138.986 139.847C138.741 139.899 138.488 139.902 138.241 139.857L114.859 135.546C114.61 135.501 114.373 135.407 114.162 135.27C113.95 135.133 113.77 134.955 113.63 134.748C113.491 134.54 113.395 134.307 113.349 134.062C113.304 133.818 113.309 133.567 113.364 133.324Z" fill="#455A64"/>
<path d="M140.666 126.616L140.638 126.777C140.615 126.893 140.587 127.059 140.544 127.267C140.46 127.706 140.333 128.339 140.168 129.157L138.758 136.138L138.645 136.701C138.619 136.905 138.534 137.097 138.401 137.256C138.26 137.417 138.071 137.532 137.861 137.584C137.648 137.626 137.429 137.616 137.221 137.556L134.674 137.071L129.034 136.004L122.825 134.816L119.535 134.188L117.857 133.865L117.434 133.786C117.285 133.765 117.138 133.728 116.997 133.675C116.852 133.612 116.723 133.518 116.62 133.398C116.517 133.279 116.444 133.138 116.405 132.987C116.379 132.855 116.379 132.721 116.405 132.589C116.405 132.455 116.457 132.345 116.48 132.224L116.635 131.508L116.946 130.09C117.148 129.166 117.35 128.242 117.547 127.318C117.948 125.492 118.332 123.734 118.699 122.047V121.968H118.779C125.109 123.562 130.585 124.698 134.467 125.452C136.413 125.826 137.959 126.108 139.017 126.297L140.239 126.519L140.544 126.579L140.648 126.602H140.535L140.22 126.556L139.007 126.362C137.945 126.186 136.399 125.923 134.453 125.558C130.557 124.837 125.077 123.71 118.736 122.134L118.835 122.074C118.473 123.761 118.088 125.525 117.693 127.35C117.495 128.274 117.293 129.198 117.091 130.122C116.988 130.584 116.884 131.046 116.781 131.541L116.626 132.252C116.55 132.474 116.531 132.71 116.57 132.941C116.603 133.067 116.665 133.184 116.75 133.284C116.836 133.384 116.943 133.464 117.063 133.518C117.193 133.567 117.329 133.599 117.467 133.615L117.89 133.698L119.568 134.022L122.858 134.65L129.072 135.847L134.712 136.932L137.259 137.427C137.448 137.481 137.648 137.491 137.842 137.454C138.024 137.41 138.189 137.312 138.312 137.172C138.431 137.03 138.506 136.857 138.528 136.673C138.57 136.484 138.608 136.299 138.645 136.119C139.261 133.19 139.764 130.825 140.107 129.189C140.286 128.371 140.422 127.734 140.516 127.295C140.563 127.082 140.601 126.916 140.624 126.796C140.648 126.676 140.666 126.616 140.666 126.616Z" fill="#263238"/>
<path d="M132.361 135.13C132.361 135.13 132.498 135.153 132.761 135.153C133.142 135.141 133.512 135.023 133.828 134.812C134.072 134.639 134.275 134.416 134.423 134.158C134.571 133.901 134.66 133.614 134.683 133.319C134.819 132.631 134.979 131.85 135.153 130.986C135.242 130.552 135.332 130.099 135.426 129.628C135.562 129.156 135.513 128.652 135.289 128.214C135.167 127.987 134.999 127.788 134.794 127.629C134.589 127.47 134.353 127.355 134.1 127.29C133.565 127.175 132.986 127.068 132.408 126.953L124.846 125.465C124.528 125.403 124.199 125.423 123.891 125.522C123.583 125.622 123.307 125.798 123.088 126.034C122.872 126.263 122.721 126.546 122.651 126.851L122.454 127.775L122.078 129.623C122.018 129.931 121.957 130.227 121.894 130.51C121.828 130.794 121.777 131.081 121.744 131.37C121.729 131.643 121.776 131.916 121.882 132.169C121.988 132.423 122.149 132.65 122.355 132.834C122.554 133.009 122.788 133.141 123.041 133.222C123.286 133.296 123.563 133.338 123.817 133.393L126.688 133.971L130.848 134.821L131.976 135.061L132.267 135.126L132.366 135.153H132.263L131.967 135.103L130.834 134.895L126.665 134.095L123.784 133.518C123.525 133.462 123.267 133.43 122.99 133.352C122.716 133.266 122.464 133.122 122.252 132.931C122.027 132.734 121.85 132.489 121.734 132.216C121.618 131.942 121.565 131.647 121.58 131.351C121.614 131.054 121.666 130.76 121.735 130.469C121.796 130.178 121.852 129.882 121.913 129.582C122.035 128.986 122.162 128.376 122.289 127.734C122.35 127.424 122.416 127.11 122.482 126.81C122.559 126.478 122.721 126.171 122.952 125.918C123.19 125.661 123.492 125.469 123.828 125.36C124.164 125.251 124.522 125.228 124.87 125.294L132.432 126.796C133.01 126.916 133.574 127.018 134.129 127.142C134.403 127.215 134.658 127.343 134.878 127.519C135.099 127.695 135.279 127.914 135.407 128.163C135.642 128.631 135.69 129.168 135.543 129.669C135.445 130.131 135.351 130.593 135.261 131.023C135.083 131.882 134.918 132.663 134.791 133.333C134.754 133.504 134.721 133.67 134.674 133.832C134.623 133.983 134.554 134.127 134.467 134.262C134.319 134.501 134.118 134.705 133.879 134.858C133.552 135.071 133.168 135.183 132.775 135.181C132.635 135.183 132.496 135.166 132.361 135.13Z" fill="#263238"/>
<g opacity="0.3">
<path d="M116.932 133.583C123.2 136.809 130.293 138.163 137.334 137.477L116.932 133.583Z" fill="black"/>
</g>
<path d="M130.923 129.018L128.31 128.501C128.212 128.481 128.119 128.443 128.036 128.388C127.952 128.334 127.881 128.263 127.826 128.181C127.77 128.099 127.732 128.007 127.712 127.911C127.693 127.814 127.694 127.715 127.713 127.618C127.754 127.425 127.871 127.255 128.038 127.145C128.205 127.036 128.409 126.995 128.606 127.032L131.234 127.554C131.332 127.572 131.425 127.61 131.508 127.664C131.591 127.719 131.663 127.789 131.718 127.87C131.774 127.952 131.812 128.044 131.831 128.14C131.851 128.236 131.85 128.335 131.831 128.431C131.812 128.529 131.773 128.622 131.717 128.705C131.66 128.788 131.588 128.859 131.503 128.913C131.419 128.968 131.324 129.005 131.224 129.023C131.125 129.042 131.022 129.04 130.923 129.018Z" fill="#E0E0E0"/>
<path d="M135.097 111.014C135.442 111.529 135.723 112.083 135.934 112.663C136.028 113.703 136.047 114.748 135.99 115.791C135.99 115.791 135.44 116.064 134.994 114.613C134.758 113.915 134.59 113.198 134.491 112.469L135.097 111.014Z" fill="#FFBF9D"/>
<path d="M135.027 115.657L135.13 111.079L133.335 107.692L127.638 107.586L127.436 113.13C127.436 113.13 128.273 115.509 128.672 115.957C129.072 116.406 129.871 116.073 129.871 116.073C130.298 116.738 131.483 116.493 131.483 116.493C132.061 117.172 132.963 116.535 132.963 116.535C132.963 116.535 133.753 117.246 134.115 117.2C134.267 117.164 134.402 117.08 134.5 116.96C134.83 116.602 135.017 116.14 135.027 115.657Z" fill="#FFBF9D"/>
<path d="M129.433 114.89C129.485 114.89 129.621 115.117 129.729 115.435C129.837 115.754 129.889 116.031 129.833 116.05C129.776 116.068 129.645 115.819 129.537 115.5C129.429 115.181 129.377 114.909 129.433 114.89Z" fill="#FF9A6C"/>
<path d="M130.909 114.821C131.052 115.087 131.152 115.374 131.205 115.671C131.323 115.949 131.398 116.244 131.426 116.544C131.212 116.317 131.067 116.035 131.008 115.731C130.887 115.443 130.853 115.127 130.909 114.821Z" fill="#FF9A6C"/>
<path d="M132.592 114.969C132.653 114.969 132.695 115.32 132.78 115.74C132.865 116.16 132.944 116.502 132.888 116.525C132.832 116.549 132.658 116.221 132.573 115.777C132.489 115.333 132.54 114.969 132.592 114.969Z" fill="#FF9A6C"/>
<path d="M135.063 112.515C135.155 113.091 135.182 113.675 135.143 114.257C135.168 114.837 135.126 115.419 135.016 115.99C134.895 114.834 134.91 113.668 135.063 112.515Z" fill="#FF9A6C"/>
<path d="M129.349 113.971C129.349 113.971 129.349 114.054 129.227 114.114C129.092 114.191 128.933 114.215 128.78 114.183C128.626 114.152 128.489 114.067 128.395 113.943C128.324 113.851 128.32 113.772 128.343 113.763C128.367 113.754 128.55 113.934 128.813 113.985C129.076 114.035 129.316 113.924 129.349 113.971Z" fill="#FF9A6C"/>
<path d="M131.069 114.248C131.069 114.248 131.036 114.331 130.924 114.387C130.775 114.446 130.611 114.462 130.454 114.433C130.29 114.403 130.141 114.324 130.026 114.206C129.941 114.109 129.922 114.035 129.941 114.017C129.96 113.998 130.181 114.179 130.491 114.234C130.801 114.29 131.041 114.197 131.069 114.248Z" fill="#FF9A6C"/>
<path d="M134.364 113.911C134.364 113.883 134.495 114.031 134.364 114.229C134.184 114.426 133.932 114.543 133.663 114.557C133.404 114.581 133.144 114.523 132.921 114.391C132.756 114.285 132.69 114.179 132.709 114.16C133.006 114.285 133.326 114.351 133.649 114.354C133.869 114.342 134.079 114.266 134.255 114.137C134.364 114.031 134.335 113.92 134.364 113.911Z" fill="#FF9A6C"/>
<path d="M152.097 70.8476C149.86 73.1576 135.966 86.5556 135.966 86.5556C135.966 86.5556 135.163 108.223 134.758 108.316C134.354 108.408 126.369 107.766 126.369 107.766C126.369 107.766 125.25 84.7953 126.181 82.1758C127.112 79.5563 138.993 64.241 139.252 63.9222C139.51 63.6034 140.873 61.2611 145.418 60.1107C150.743 58.7709 152.98 61.2796 153.878 63.8529C154.649 66.0705 153.178 69.517 152.468 70.441C152.353 70.584 152.229 70.7198 152.097 70.8476Z" fill="#263238"/>
<path d="M152.097 70.8476C152.097 70.8476 152.163 70.7552 152.304 70.5935C152.509 70.3505 152.682 70.0836 152.821 69.7988C153.38 68.7139 153.762 67.5493 153.953 66.3477C154.112 65.4877 154.053 64.6026 153.784 63.7697C153.447 62.782 152.871 61.8894 152.106 61.1687C151.669 60.7829 151.171 60.4707 150.63 60.2447C150.052 60.0177 149.442 59.8761 148.821 59.8242C147.458 59.7648 146.096 59.9447 144.798 60.3555C143.353 60.7626 142.002 61.4421 140.821 62.356C140.209 62.8573 139.672 63.4423 139.228 64.0931L137.71 66.0659C135.675 68.7316 133.513 71.6099 131.29 74.636C130.185 76.1606 129.053 77.7314 127.962 79.3668C127.397 80.1803 126.884 81.0274 126.425 81.9032C126.378 82.0187 126.317 82.125 126.275 82.2405L126.204 82.5962C126.147 82.8375 126.111 83.0833 126.096 83.3308L126.031 84.0839L125.993 84.8415C125.847 88.9118 125.965 93.1575 126.082 97.4634C126.19 100.975 126.327 104.416 126.482 107.752L126.369 107.641L130.66 107.974L132.766 108.117L133.804 108.177L134.321 108.2H134.683C134.791 107.547 134.865 106.888 134.904 106.228C134.946 105.562 134.993 104.906 135.036 104.25C135.111 102.944 135.183 101.66 135.252 100.397C135.51 95.352 135.722 90.6951 135.868 86.5371V86.5001V86.4724L147.683 75.0333L150.922 71.9194L151.768 71.1109C151.96 70.9307 152.064 70.8429 152.064 70.8429C152.064 70.8429 151.975 70.9446 151.787 71.1294L150.959 71.9564L147.759 75.1072L136.009 86.6064L136.037 86.5417C135.886 90.6997 135.703 95.352 135.454 100.402C135.388 101.661 135.319 102.946 135.247 104.255C135.2 104.911 135.158 105.571 135.116 106.237C135.079 106.915 135.002 107.591 134.885 108.26C134.874 108.297 134.857 108.331 134.834 108.362C134.813 108.389 134.783 108.407 134.749 108.413H134.711H134.561H134.298L133.776 108.39L132.733 108.33L130.627 108.186L126.336 107.858H126.228V107.752C126.073 104.412 125.937 100.97 125.828 97.4541C125.711 93.1298 125.593 88.9071 125.744 84.8184L125.781 84.0561L125.852 83.2938C125.867 83.0373 125.903 82.7824 125.96 82.5315L126.045 82.1527C126.09 82.0314 126.141 81.9126 126.2 81.797C126.663 80.9092 127.182 80.0513 127.755 79.2282C128.855 77.5835 129.988 76.0173 131.097 74.4927C133.325 71.4482 135.496 68.593 137.541 65.9319L139.054 63.973C139.299 63.6635 139.524 63.3216 139.811 63.049C140.08 62.7543 140.372 62.4809 140.685 62.2313C143.018 60.4919 145.889 59.5947 148.816 59.6903C149.454 59.7512 150.078 59.907 150.668 60.1523C151.223 60.3822 151.733 60.7041 152.177 61.104C152.954 61.8402 153.537 62.7522 153.873 63.7605C154.145 64.6123 154.198 65.5169 154.028 66.3939C153.826 67.6026 153.426 68.7712 152.844 69.8543C152.699 70.1378 152.517 70.4018 152.304 70.6397C152.177 70.769 152.097 70.8476 152.097 70.8476Z" fill="#455A64"/>
<path d="M159.979 80.7621C159.934 80.6812 159.902 80.5939 159.885 80.5034C159.824 80.3094 159.749 80.0414 159.655 79.7504C159.453 79.0666 159.185 78.1149 158.842 76.9506C158.165 74.5436 157.239 71.2403 156.2 67.5351V67.4843L156.228 67.4381C156.487 67.0407 156.764 66.6157 157.046 66.1907L157.258 65.8626L157.352 66.0474L155.796 65.9042H155.716L155.688 65.8257C155.41 64.9633 155.089 64.1152 154.724 63.2847C154.402 62.5136 153.996 61.7793 153.512 61.0948C153.025 60.5288 152.427 60.0652 151.754 59.7319C151.134 59.3854 150.537 59.0943 149.991 58.8402C148.892 58.332 147.994 57.9624 147.374 57.7083L146.664 57.4173C146.578 57.3896 146.496 57.3524 146.419 57.3064C146.509 57.3172 146.596 57.3406 146.678 57.3757C146.847 57.4311 147.092 57.5143 147.406 57.6298C148.036 57.8562 148.948 58.2027 150.057 58.6924C150.612 58.9419 151.213 59.2237 151.848 59.5656C152.549 59.9008 153.175 60.3723 153.686 60.9516C154.187 61.6431 154.607 62.3887 154.936 63.1738C155.309 64.0114 155.638 64.8673 155.923 65.7379L155.815 65.6547L157.375 65.7933H157.573L157.464 65.9597L157.253 66.2877L156.43 67.5351V67.4381C157.441 71.1572 158.339 74.4605 158.992 76.8767C159.302 78.0502 159.551 79.0065 159.735 79.6949C159.81 80.0091 159.876 80.2632 159.923 80.4618C159.956 80.5588 159.975 80.6599 159.979 80.7621Z" fill="#455A64"/>
<path d="M158.357 66.9576C155.631 68.5377 153.418 68.5284 148.868 68.1496C145.714 67.8863 142.951 66.9992 139.788 66.9022C135.229 66.7682 131.798 68.1357 127.662 69.9837L124.597 73.5411L130.345 75.2505C134.23 73.2881 138.568 72.352 142.932 72.534C149.982 72.9128 156.599 71.0232 158.94 69.263L159.744 67.0731L159.438 65.9274L158.47 65.8396L158.357 66.9576Z" fill="#FF725E"/>
<path d="M158.357 66.9576C158.357 66.9576 158.357 66.8605 158.357 66.6711C158.357 66.4817 158.395 66.2091 158.428 65.8534V65.821H158.456L159.424 65.8996H159.452V65.9273C159.542 66.2599 159.65 66.6434 159.767 67.0684C159.542 67.7106 159.274 68.4544 158.982 69.2676C158.294 69.76 157.546 70.1651 156.755 70.4734C155.849 70.8505 154.92 71.1684 153.972 71.4251C150.453 72.3652 146.806 72.7626 143.162 72.6032C141.768 72.5343 140.371 72.5776 138.984 72.7326C137.521 72.9017 136.075 73.197 134.665 73.615C133.189 74.0356 131.76 74.5989 130.397 75.2967H130.35H130.303L126.947 74.3819L124.55 73.6566L124.372 73.6057L124.489 73.4671L127.553 69.9051H127.577C129.551 68.9841 131.594 68.2119 133.687 67.5951C135.623 67.0456 137.633 66.7917 139.647 66.8421C141.442 66.9303 143.228 67.162 144.986 67.5351C146.499 67.8394 148.029 68.0538 149.568 68.1772C150.826 68.2975 152.089 68.3499 153.352 68.3343C154.297 68.321 155.235 68.1843 156.144 67.9278C156.711 67.7593 157.263 67.5429 157.793 67.281L158.197 67.0731L158.343 67.0038C158.343 67.0038 158.306 67.0361 158.216 67.0869C158.127 67.1377 157.991 67.2209 157.812 67.3179C157.288 67.6007 156.737 67.8327 156.167 68.0109C155.253 68.2892 154.304 68.4447 153.347 68.4729C152.08 68.5006 150.812 68.459 149.549 68.3482C148.004 68.2372 146.468 68.032 144.948 67.7337C143.199 67.3741 141.423 67.1516 139.637 67.0684C137.644 67.0238 135.657 67.2809 133.743 67.8307C131.67 68.4517 129.646 69.2238 127.69 70.1407L127.732 70.1084L124.672 73.6704L124.616 73.4764L126.999 74.1879L130.364 75.1858H130.27C131.653 74.4677 133.107 73.8888 134.608 73.4579C136.032 73.0398 137.489 72.7446 138.965 72.5755C140.369 72.4228 141.784 72.3826 143.195 72.4554C146.814 72.6234 150.438 72.2431 153.939 71.3281C154.881 71.0775 155.805 70.7689 156.708 70.4041C157.489 70.1025 158.23 69.7101 158.917 69.2352V69.2629L159.734 67.0731V67.1008L159.443 65.955L159.476 65.9874L158.508 65.8857H158.541L158.442 66.7127C158.39 66.8698 158.357 66.9576 158.357 66.9576Z" fill="#263238"/>
<path d="M147.58 95.7909C147.58 95.851 145.479 95.1765 142.941 94.2848C141.393 93.785 139.873 93.2067 138.387 92.5523C138.41 92.4922 140.488 93.1668 143.026 94.0584C144.573 94.5582 146.093 95.1365 147.58 95.7909Z" fill="#455A64"/>
</svg>
