<svg xmlns="http://www.w3.org/2000/svg" xmlns:xlink="http://www.w3.org/1999/xlink" width="500" zoomAndPan="magnify" viewBox="0 0 375 374.999991" height="500" preserveAspectRatio="xMidYMid meet" version="1.0"><defs><clipPath id="5e668b5dd2"><path d="M 0 0 L 375 0 L 375 312 L 0 312 Z M 0 0 " clip-rule="nonzero"/></clipPath></defs><g clip-path="url(#5e668b5dd2)"><path fill="#000000" d="M 104.609375 5.972656 C 103.683594 5.070312 102.285156 5.070312 101.359375 5.972656 C 100.457031 6.898438 100.457031 8.300781 101.359375 9.226562 C 102.140625 9.980469 103.265625 10.101562 104.152344 9.570312 L 129.914062 35.332031 L 129.914062 51.203125 L 154.144531 75.433594 L 215.476562 75.433594 L 229.136719 61.773438 L 370.460938 61.773438 C 370.71875 62.761719 371.617188 63.503906 372.6875 63.503906 C 373.953125 63.503906 374.992188 62.472656 374.992188 61.199219 C 374.992188 59.9375 373.960938 58.898438 372.6875 58.898438 C 371.617188 58.898438 370.71875 59.640625 370.460938 60.628906 L 228.671875 60.628906 L 215.007812 74.289062 L 154.621094 74.289062 L 131.058594 50.726562 L 131.058594 34.859375 L 104.957031 8.757812 C 105.488281 7.882812 105.375 6.753906 104.609375 5.972656 M 6.867188 32.242188 C 5.601562 32.242188 4.566406 33.273438 4.566406 34.542969 C 4.566406 35.808594 5.59375 36.847656 6.867188 36.847656 C 7.9375 36.847656 8.839844 36.105469 9.097656 35.117188 L 81.191406 35.117188 L 95.320312 49.246094 L 95.320312 80.472656 L 144.894531 130.050781 L 211.59375 130.050781 L 225.820312 144.273438 L 300.644531 144.273438 C 300.902344 145.265625 301.804688 146.007812 302.875 146.007812 C 304.136719 146.007812 305.175781 144.976562 305.175781 143.703125 C 305.175781 142.441406 304.144531 141.402344 302.875 141.402344 C 301.804688 141.402344 300.902344 142.140625 300.644531 143.132812 L 226.289062 143.132812 L 212.0625 128.90625 L 145.363281 128.90625 L 96.453125 80 L 96.453125 48.769531 L 81.65625 33.972656 L 9.097656 33.972656 C 8.839844 32.976562 7.9375 32.242188 6.867188 32.242188 Z M 129.429688 66.796875 C 128.503906 65.894531 127.105469 65.894531 126.179688 66.796875 C 125.277344 67.722656 125.277344 69.121094 126.179688 70.046875 C 126.960938 70.804688 128.085938 70.925781 128.972656 70.394531 L 153.238281 94.660156 L 222.335938 94.660156 L 237.308594 79.683594 L 286.957031 79.683594 C 287.214844 80.675781 288.117188 81.414062 289.1875 81.414062 C 290.453125 81.414062 291.492188 80.386719 291.492188 79.113281 C 291.492188 77.847656 290.460938 76.8125 289.1875 76.8125 C 288.117188 76.8125 287.214844 77.550781 286.957031 78.542969 L 236.84375 78.542969 L 221.867188 93.515625 L 153.71875 93.515625 L 129.792969 69.589844 C 130.308594 68.703125 130.1875 67.585938 129.429688 66.796875 Z M 163.703125 57.160156 C 162.4375 57.160156 161.398438 58.191406 161.398438 59.460938 C 161.398438 60.726562 162.429688 61.765625 163.703125 61.765625 C 164.773438 61.765625 165.675781 61.023438 165.933594 60.03125 L 206.933594 60.03125 L 225.722656 41.242188 L 292.328125 41.242188 L 302.578125 30.996094 L 350.785156 30.996094 C 351.042969 31.984375 351.941406 32.726562 353.011719 32.726562 C 354.277344 32.726562 355.316406 31.695312 355.316406 30.421875 C 355.316406 29.160156 354.285156 28.121094 353.011719 28.121094 C 351.941406 28.121094 351.042969 28.859375 350.785156 29.851562 L 302.101562 29.851562 L 291.851562 40.101562 L 225.25 40.101562 L 206.460938 58.890625 L 165.933594 58.890625 C 165.675781 57.898438 164.773438 57.160156 163.703125 57.160156 Z M 138.464844 2.753906 C 135.765625 0.0898438 131.476562 0.0898438 128.777344 2.753906 C 126.113281 5.449219 126.113281 9.742188 128.777344 12.4375 C 131.058594 14.691406 134.460938 15.039062 137.09375 13.492188 L 162.640625 39.035156 L 192.515625 39.035156 L 209.140625 22.414062 L 237.890625 22.414062 C 238.652344 25.359375 241.34375 27.546875 244.515625 27.546875 C 248.28125 27.546875 251.359375 24.472656 251.359375 20.707031 C 251.359375 16.9375 248.28125 13.863281 244.515625 13.863281 C 241.335938 13.863281 238.652344 16.050781 237.890625 19 L 207.722656 19 L 191.097656 35.625 L 164.066406 35.625 L 139.519531 11.070312 C 141.0625 8.445312 140.710938 5.03125 138.464844 2.753906 Z M 6.867188 38.820312 C 3.097656 38.820312 0.0234375 41.894531 0.0234375 45.664062 C 0.0234375 49.429688 3.097656 52.503906 6.867188 52.503906 C 10.046875 52.503906 12.726562 50.316406 13.492188 47.371094 L 67.882812 47.371094 L 76.980469 56.464844 L 76.980469 84.699219 L 137.820312 145.539062 L 137.820312 186.011719 L 167.648438 215.835938 C 166.101562 218.46875 166.449219 221.875 168.703125 224.152344 C 171.398438 226.820312 175.691406 226.820312 178.386719 224.152344 C 181.050781 221.457031 181.050781 217.167969 178.386719 214.46875 C 176.109375 212.214844 172.703125 211.867188 170.070312 213.414062 L 141.242188 184.585938 L 141.242188 144.113281 L 80.402344 83.277344 L 80.402344 55.042969 L 69.300781 43.941406 L 13.492188 43.941406 C 12.726562 41.007812 10.046875 38.820312 6.867188 38.820312 Z M 257.863281 173.066406 C 259.125 173.066406 260.164062 172.035156 260.164062 170.761719 C 260.164062 169.5 259.136719 168.460938 257.863281 168.460938 C 256.792969 168.460938 255.890625 169.199219 255.632812 170.191406 L 225.75 170.191406 L 207.441406 151.882812 L 153.582031 151.882812 L 153.582031 176.308594 L 174.796875 197.523438 L 200.1875 197.523438 C 200.445312 198.511719 201.347656 199.253906 202.417969 199.253906 C 203.683594 199.253906 204.71875 198.222656 204.71875 196.949219 C 204.71875 195.6875 203.691406 194.648438 202.417969 194.648438 C 201.347656 194.648438 200.445312 195.390625 200.1875 196.378906 L 175.269531 196.378906 L 154.726562 175.835938 L 154.726562 153.027344 L 206.964844 153.027344 L 225.28125 171.332031 L 255.632812 171.332031 C 255.890625 172.324219 256.792969 173.066406 257.863281 173.066406 Z M 6.867188 58.421875 C 5.601562 58.421875 4.566406 59.453125 4.566406 60.726562 C 4.566406 61.988281 5.59375 63.027344 6.867188 63.027344 C 7.9375 63.027344 8.839844 62.289062 9.097656 61.296875 L 55.695312 61.296875 L 61.347656 66.949219 L 61.347656 88.546875 L 36.277344 113.625 L 36.277344 185.890625 L 66.183594 215.796875 L 66.183594 249.480469 C 65.195312 249.738281 64.453125 250.640625 64.453125 251.710938 C 64.453125 252.976562 65.484375 254.015625 66.757812 254.015625 C 68.019531 254.015625 69.058594 252.984375 69.058594 251.710938 C 69.058594 250.640625 68.316406 249.738281 67.328125 249.480469 L 67.328125 215.324219 L 37.417969 185.414062 L 37.417969 114.09375 L 62.488281 89.023438 L 62.488281 66.472656 L 56.160156 60.144531 L 9.097656 60.144531 C 8.839844 59.164062 7.9375 58.421875 6.867188 58.421875 Z M 45.367188 86.4375 C 48.03125 83.742188 48.03125 79.453125 45.367188 76.753906 C 42.667969 74.089844 38.378906 74.089844 35.679688 76.753906 C 33.425781 79.03125 33.082031 82.4375 34.625 85.070312 L 21.867188 97.832031 L 21.867188 197.652344 L 41.378906 217.167969 L 41.378906 268.53125 C 38.433594 269.292969 36.242188 271.984375 36.242188 275.15625 C 36.242188 278.921875 39.320312 282 43.085938 282 C 46.855469 282 49.929688 278.921875 49.929688 275.15625 C 49.929688 271.976562 47.742188 269.292969 44.792969 268.53125 L 44.792969 215.75 L 25.289062 196.242188 L 25.289062 99.257812 L 37.042969 87.503906 C 39.683594 89.046875 43.09375 88.695312 45.367188 86.4375 Z M 25.714844 216.28125 C 25.714844 215.015625 24.683594 213.976562 23.410156 213.976562 C 22.148438 213.976562 21.109375 215.007812 21.109375 216.28125 C 21.109375 217.351562 21.847656 218.253906 22.839844 218.511719 L 22.839844 257.289062 L 14.707031 265.421875 L 14.707031 307.496094 C 13.71875 307.753906 12.976562 308.652344 12.976562 309.722656 C 12.976562 310.988281 14.007812 312.027344 15.28125 312.027344 C 16.542969 312.027344 17.582031 310.996094 17.582031 309.722656 C 17.582031 308.652344 16.84375 307.753906 15.851562 307.496094 L 15.851562 265.890625 L 23.984375 257.757812 L 23.984375 218.511719 C 24.980469 218.253906 25.714844 217.351562 25.714844 216.28125 Z M 73.648438 110.261719 C 72.722656 109.359375 71.320312 109.359375 70.394531 110.261719 C 69.492188 111.1875 69.492188 112.589844 70.394531 113.515625 C 71.175781 114.269531 72.304688 114.390625 73.1875 113.859375 L 112.863281 153.535156 L 112.863281 192.894531 L 160.425781 240.457031 L 247.765625 240.457031 C 248.023438 241.445312 248.925781 242.1875 249.996094 242.1875 C 251.261719 242.1875 252.300781 241.15625 252.300781 239.886719 C 252.300781 238.621094 251.269531 237.582031 249.996094 237.582031 C 248.925781 237.582031 248.023438 238.324219 247.765625 239.3125 L 160.902344 239.3125 L 114.003906 192.417969 L 114.003906 153.058594 L 73.992188 113.046875 C 74.523438 112.167969 74.402344 111.050781 73.648438 110.261719 Z M 76.609375 100.359375 C 77.511719 99.433594 77.511719 98.03125 76.609375 97.105469 C 75.683594 96.203125 74.285156 96.203125 73.359375 97.105469 C 72.601562 97.886719 72.480469 99.015625 73.011719 99.898438 L 51.300781 121.613281 L 51.300781 176.292969 L 83.285156 208.277344 L 83.285156 281.988281 C 82.292969 282.246094 81.554688 283.148438 81.554688 284.21875 C 81.554688 285.484375 82.582031 286.523438 83.855469 286.523438 C 85.121094 286.523438 86.160156 285.492188 86.160156 284.21875 C 86.160156 283.148438 85.417969 282.246094 84.425781 281.988281 L 84.425781 207.8125 L 52.441406 175.824219 L 52.441406 122.085938 L 73.824219 100.707031 C 74.703125 101.238281 75.828125 101.125 76.609375 100.359375 Z M 87.648438 140.8125 C 87.625 135.757812 83.574219 131.714844 78.519531 131.683594 C 73.460938 131.707031 69.421875 135.757812 69.390625 140.8125 C 69.414062 145.082031 72.296875 148.628906 76.230469 149.644531 L 76.230469 180.09375 L 97.105469 200.96875 L 97.105469 229.523438 C 93.171875 230.546875 90.289062 234.089844 90.265625 238.355469 C 90.289062 243.410156 94.335938 247.453125 99.394531 247.484375 C 104.449219 247.460938 108.492188 243.410156 108.523438 238.355469 C 108.5 234.089844 105.617188 230.539062 101.679688 229.523438 L 101.679688 199.078125 L 80.804688 178.199219 L 80.804688 149.644531 C 84.742188 148.628906 87.625 145.082031 87.648438 140.8125 Z M 6.867188 18.210938 C 5.601562 18.210938 4.566406 19.242188 4.566406 20.511719 C 4.566406 21.777344 5.59375 22.816406 6.867188 22.816406 C 7.9375 22.816406 8.839844 22.074219 9.097656 21.085938 L 90.265625 21.085938 L 112.347656 43.167969 L 112.347656 76.199219 L 150.242188 114.09375 L 238.523438 114.09375 C 238.78125 115.082031 239.683594 115.824219 240.753906 115.824219 C 242.019531 115.824219 243.058594 114.792969 243.058594 113.523438 C 243.058594 112.257812 242.027344 111.21875 240.753906 111.21875 C 239.683594 111.21875 238.78125 111.960938 238.523438 112.949219 L 150.707031 112.949219 L 113.480469 75.722656 L 113.480469 42.691406 L 90.730469 19.941406 L 9.097656 19.941406 C 8.839844 18.941406 7.9375 18.210938 6.867188 18.210938 Z M 6.867188 18.210938 " fill-opacity="1" fill-rule="nonzero"/></g></svg>